<svg width="65" height="63" fill="none" xmlns="http://www.w3.org/2000/svg"><path d="M60.39 9.98l.06.164h1.129c1.775 0 3.171 1.298 3.171 2.85 0 1.551-1.396 2.85-3.171 2.85h-3.97l-.025.222-4.823 43.709c-.159 1.439-1.506 2.569-3.156 2.569h-34.21c-1.65 0-2.997-1.13-3.156-2.57L7.416 16.067l-.025-.222H3.422c-1.776 0-3.172-1.299-3.172-2.85 0-1.552 1.396-2.85 3.171-2.85h1.13l.06-.164L7.252 2.8l-.234-.087.234.087C7.678 1.644 8.882.844 10.263.844h44.474c1.38 0 2.585.8 3.01 1.956l.235-.087-.234.087 2.641 7.18z" fill="#FDEDDB" stroke="#F37C00" stroke-width=".5"/></svg>