<svg width="71" height="69" fill="none" xmlns="http://www.w3.org/2000/svg"><path d="M35.523 9.408l-.185-.2-1.971-2.149C29.693 3.058 24.807.844 19.627.844c-5.164 0-10.035 2.198-13.693 6.183C2.26 11.029.235 16.346.25 22.008h0c0 5.663 2.04 10.964 5.714 14.966L34.232 67.77c.346.377.808.575 1.245.575.443 0 .903-.185 1.246-.559h0L65.052 37.04 35.523 9.408zm0 0l.184-.2m-.184.2l.184-.2m0 0l1.941-2.116c3.673-4.001 8.545-6.2 13.724-6.2 5.18 0 10.036 2.183 13.709 6.184 3.673 4.002 5.684 9.318 5.669 14.981v0M35.707 9.208l35.043 12.85m0 0c0 5.664-2.025 10.98-5.699 14.983l5.699-14.982z" fill="#FDF1F3" stroke="#E51D3E" stroke-width=".5"/></svg>