<svg width="405" height="201" fill="none" xmlns="http://www.w3.org/2000/svg"><path d="M333 134.195c27.656-5.909 65.983-21.966 69.648-78.606C407.064-12.658 372.652-49.031 351.497-53" stroke="url(#paint0_linear_1_821)" stroke-width="3.4"/><path fill="#fff" d="M162.494 140.708l-20.206 20.206-1.684-1.683 20.206-20.207z"/><path fill="#fff" d="M160.81 160.915l-20.206-20.206 1.683-1.684 20.207 20.206z"/><g clip-path="url(#clip0_1_821)" fill="#fff"><path d="M326.584 175.226h12.717v.885c.007 4.377.022 8.761.029 13.139 0 .299.15.449.45.449h2.135c.121 0 .235.008.378.015 0 .135.014.242.014.35 0 2.749 0 5.498.008 8.247 0 .293-.079.393-.372.393a77.3 77.3 0 00-2.592.064c-.278.007-.35-.1-.35-.364.015-1.721 0-3.435.007-5.156 0-.235-.057-.328-.314-.328-4.12.007-8.24 0-12.36 0-.078 0-.15.007-.264.021 0 .136-.014.264-.014.393 0 1.685-.007 3.37 0 5.055 0 .293-.086.393-.372.379-.878-.036-1.749-.05-2.627-.079-.079 0-.15-.028-.25-.043v-8.954h1.785c.657 0 .821-.064 1.021-.7.236-.735.443-1.485.557-2.249.407-2.692.364-5.412.407-8.126.021-1.121 0-2.235 0-3.398l.007.007zm2.356 14.473h.436c1.985 0 3.977-.007 5.962.008.329 0 .436-.065.429-.415-.015-3.498-.007-7.004-.007-10.503v-.364h-5.856c-.064 1.899-.107 3.77-.192 5.641-.079 1.877-.307 3.741-.772 5.633zm15.531-4.762c.043-3.028.864-5.463 2.785-7.462 1.535-1.6 3.42-2.492 5.641-2.671 2.292-.193 4.37.35 6.119 1.871 1.628 1.414 2.464 3.256 2.728 5.355.3 2.364-.065 4.627-1.243 6.712-1.392 2.464-3.47 4.056-6.276 4.527-2.478.422-4.806-.021-6.784-1.678-1.578-1.313-2.442-3.041-2.792-5.041-.107-.628-.135-1.278-.171-1.621l-.007.008zm3.656-.822c.028 1.179.228 2.235.735 3.221 1.421 2.777 4.849 3.527 7.226 1.571.972-.793 1.55-1.85 1.843-3.049.5-2.092.292-4.078-1.007-5.863-1.65-2.27-5.155-2.47-7.076-.435-1.228 1.299-1.664 2.892-1.721 4.541v.014zm-42.464 12.939c.449.086.856.193 1.271.236 1.064.1 1.992-.265 2.784-.95 1.436-1.243 2.264-2.899 3.106-4.584-.385 0-.735-.022-1.078 0-.271.021-.392-.079-.485-.322-1.171-2.963-2.357-5.926-3.535-8.882-.921-2.307-1.835-4.606-2.756-6.912-.036-.093-.057-.186-.1-.322.307-.021.593-.035.871-.071.914-.1 1.828-.193 2.742-.307.236-.029.329.057.407.264.85 2.235 1.707 4.47 2.563 6.698.75 1.963 1.507 3.927 2.264 5.891.029.078.064.157.121.307.108-.264.193-.464.272-.664 1.328-3.471 2.663-6.948 3.991-10.418.236-.607.457-1.221.7-1.828.036-.086.164-.207.236-.2 1.078.057 2.149.136 3.22.214.029 0 .064.022.114.036-.478 1.221-.957 2.435-1.435 3.649-1.671 4.255-3.327 8.518-5.005 12.774-.879 2.228-1.821 4.427-3.249 6.376-.821 1.129-1.785 2.1-3.164 2.535-1.071.343-2.149.264-3.213-.057a.415.415 0 01-.243-.236 7.454 7.454 0 01-.414-3.241l.015.014zm-7.876-11.332c-.829.271-1.621.564-2.428.778-1.857.479-3.735.707-5.627.286-1.735-.386-2.863-1.464-3.256-3.292-.164-.785-.214-1.599-.228-2.406-.036-1.642 0-3.278-.022-4.92 0-.3.093-.457.364-.528.807-.229 1.621-.457 2.428-.679.243-.064.493-.114.786-.185.007.142.021.264.021.392 0 1.985 0 3.97.014 5.948.015 1.693 1.036 2.407 2.499 2.542 1.786.165 3.485-.192 5.12-.899.25-.107.336-.243.329-.522-.043-2.285-.079-4.562-.115-6.847 0-.022.007-.043.015-.157 1.192-.043 2.377-.093 3.641-.136l.107 17.751c-.021 0-.135.036-.25.05-.942.072-1.877.157-2.82.2-.557.029-.528.107-.536-.535-.021-2.171-.035-4.342-.057-6.52v-.314l.015-.007zm-31.618-5.712c.021-.543.028-1.107-.208-1.628-.335-.757-.992-1.029-1.756-1.064-1.321-.072-2.535.278-3.635 1.028-.014.014-.035.021-.085.043-.057-.257-.122-.5-.164-.75-.043-.278-.058-.571-.093-.85-.015-.128.021-.207.128-.285.821-.614 1.75-.964 2.756-1.143a6.975 6.975 0 012.243-.043c.828.129 1.556.443 2.106 1.1.443.536.664 1.164.757 1.835.05.4.078.807.078 1.207.022 1.185.008 2.363.036 3.549.022.971.136 1.928.45 2.87-.293.193-.621.271-.95.336-.235.05-.471.064-.707.107-.121.021-.192-.014-.228-.129-.171-.535-.343-1.071-.507-1.606-.05-.157-.064-.322-.107-.522-.093.15-.172.272-.25.393-.836 1.364-2.556 2.157-4.149 1.914-.971-.143-1.721-.593-2.12-1.507-.315-.714-.336-1.456-.1-2.199.321-1.035 1.071-1.671 2.027-2.085 1.079-.471 2.228-.586 3.392-.571h1.086zm-.129 1.463c-.864-.135-2.135-.05-2.935.215-.464.15-.878.371-1.178.771-.55.742-.221 1.778.671 2.006.307.079.65.079.964.022 1.407-.264 2.314-1.65 2.478-3.014zm7.248-6.262v4.763c.514 0 .985-.093 1.413-.357.486-.3.814-.736 1.072-1.235.349-.679.656-1.379 1.042-2.035.514-.872 1.335-1.193 2.328-1.086.321.036.635.122.957.193.1.021.15.071.15.193-.022.621-.2 1.192-.429 1.771-.128-.058-.235-.115-.357-.15-.421-.143-.778-.007-1.035.314a7.671 7.671 0 00-.586.921c-.35.628-.664 1.285-1.164 1.835 1.307 1.899 2.607 3.792 3.928 5.72-.25.035-.472.085-.693.1-.536.042-1.071.078-1.614.121-.114.007-.178-.029-.243-.129-.856-1.349-1.713-2.699-2.577-4.048-.143-.222-.286-.45-.4-.629-.614.093-1.193.186-1.771.272v4.398c-.7.022-1.414.05-2.178.072v-1.25c0-2.97 0-5.941-.014-8.904 0-.15.043-.236.186-.279.642-.185 1.285-.371 1.97-.564l.015-.007zm-22.579 6.498v4.434c-.692.022-1.399.05-2.127.072-.008-.122-.015-.193-.015-.265-.014-2.135-.028-4.277-.035-6.412v-3.484c0-.143.042-.222.178-.264.65-.186 1.293-.379 1.978-.572v4.763c.75-.007 1.392-.221 1.899-.764.5-.528.764-1.193 1.064-1.835.257-.543.507-1.086.943-1.514.535-.528 1.192-.678 1.906-.607.343.036.679.129 1.014.207.05.014.122.093.122.136 0 .635-.186 1.221-.422 1.806-.128-.057-.228-.107-.342-.142-.407-.136-.8-.029-1.079.349a8.011 8.011 0 00-.585.943c-.336.614-.65 1.235-1.128 1.771l3.92 5.705c-.136.029-.25.057-.364.071-.629.058-1.257.1-1.885.158-.143.014-.229-.029-.307-.15-.957-1.514-1.921-3.028-2.878-4.542-.079-.121-.143-.135-.286-.107-.457.093-.914.15-1.371.222a1.77 1.77 0 01-.192.014l-.008.007zm-6.547-21.486v-.378c0-2.028 0-4.056-.007-6.084 0-.293.085-.457.364-.528 1.049-.293 2.106-.6 3.213-.914v7.947c.807-.007 1.521-.164 2.178-.578.814-.521 1.328-1.293 1.742-2.142.464-.957.886-1.935 1.357-2.885a5.74 5.74 0 01.721-1.071c.843-1.007 1.964-1.328 3.227-1.207.536.05 1.064.207 1.593.329.171.035.25.135.243.328-.036 1.021-.336 1.978-.7 2.942-.093-.043-.157-.071-.222-.107-.728-.393-1.421-.314-1.949.314-.343.4-.614.864-.871 1.328-.628 1.107-1.228 2.221-1.885 3.413a9494.14 9494.14 0 006.219 9.454c-.171.036-.3.064-.421.079-1.135.1-2.278.2-3.413.307-.207.021-.286-.093-.379-.25a3767.99 3767.99 0 00-4.527-7.555c-.057-.093-.121-.185-.135-.214-.936.157-1.821.307-2.721.457v7.29c-1.171.129-2.349.215-3.577.1v-7.376c-.957-.157-1.857-.3-2.821-.464-.35.579-.742 1.236-1.142 1.9-1.171 1.97-2.342 3.941-3.52 5.905-.058.093-.2.2-.293.193-1.257-.1-2.521-.222-3.778-.336-.028 0-.057-.029-.114-.071 2.085-3.178 4.17-6.341 6.27-9.533-1.014-1.192-1.543-2.663-2.343-3.97a3.638 3.638 0 00-.742-.878c-.529-.457-1.1-.429-1.921.057-.193-.657-.393-1.293-.564-1.935-.064-.257-.071-.529-.1-.793-.05-.514-.057-.528.436-.657.885-.243 1.778-.378 2.692-.185 1.249.264 2.042 1.078 2.606 2.142.492.942.899 1.92 1.364 2.877.485 1 1.092 1.907 2.142 2.414.492.243 1.314.407 1.806.335h-.028zm18.972 10.361v-2.128c0-4.912 0-9.818-.021-14.73 0-.243.057-.393.307-.465 1.085-.307 2.163-.621 3.291-.949v12.945s.05.022.072.029c.221-.314.45-.636.671-.957 2.592-3.756 5.184-7.519 7.783-11.267.093-.129.257-.279.407-.293 1.071-.093 2.142-.157 3.22-.222.065 0 .129.015.229.029.25 5.977-.079 11.946.264 18.008-1.199.086-2.392.179-3.67.272-.143-4.52-.064-8.955-.164-13.41-.307.45-.614.899-.914 1.356-1.721 2.585-3.435 5.17-5.156 7.748-.785 1.178-1.578 2.356-2.349 3.549-.186.278-.364.442-.728.45-.9.007-1.793.064-2.692.092-.15 0-.307-.021-.55-.042v-.015zm41.707-18.287v7.605h8.605c.007-.086.028-.186.021-.278-.05-2.185-.1-4.363-.164-6.548 0-.207.028-.314.25-.329 1.028-.064 2.056-.135 3.084-.214.25-.021.336.064.336.314.021 1.464.057 2.928.071 4.384.029 3.749.036 7.491.065 11.24 0 .671.064 1.342.107 2.063-.671.079-1.328.164-1.992.214-.443.036-.886 0-1.328.036-.272.014-.343-.086-.35-.336-.022-1.685-.057-3.37-.079-5.055a85.233 85.233 0 010-1.892c0-.229-.064-.307-.3-.307-2.677.007-5.348.007-8.026 0-.264 0-.314.093-.307.328.036 2.171.065 4.342.1 6.512v.514c-1.142.022-2.256.036-3.377.058-.193 0-.243-.093-.25-.265 0-.528-.036-1.064-.036-1.592-.014-5.02-.021-10.039-.021-15.059 0-.129.078-.343.171-.371 1.114-.35 2.235-.679 3.413-1.029l.007.007zm22.1.072v7.176c.521-.036 1-.086 1.485-.107 1.8-.093 3.592-.122 5.341.421 1.279.4 2.421 1.021 3.049 2.249 1 1.964.779 3.899-.449 5.691-.971 1.428-2.45 2.149-4.07 2.571-1.407.364-2.849.442-4.292.378-1.442-.071-2.877-.171-4.32-.243-.25-.014-.343-.085-.343-.349.008-5.499 0-10.99 0-16.488 0-.214.065-.335.265-.393.842-.242 1.678-.485 2.52-.721.25-.071.514-.121.814-.185zm.022 15.323c1.149.193 2.292.229 3.427.129.843-.079 1.657-.293 2.364-.8.906-.65 1.235-1.542 1.042-2.614-.178-1.013-.893-1.542-1.828-1.806-1.557-.45-3.135-.329-4.713-.114-.242.035-.321.135-.321.385.014 1.507 0 3.014.007 4.52 0 .1.014.193.022.307v-.007zm-33.482-6.876c.457.2.914.35 1.321.585 1.264.75 1.778 1.936 1.821 3.342.085 2.578-1.35 4.592-3.885 5.498-2.178.779-4.391.779-6.619.307-.578-.121-1.149-.335-1.714-.521a.593.593 0 01-.314-.257c-.343-.685-.528-2.392-.371-3.17.55.185 1.092.392 1.649.55 1.757.492 3.535.649 5.32.207a4.475 4.475 0 001.55-.729c1.228-.921 1.035-2.499-.343-3.177-1.121-.55-2.307-.571-3.513-.5-.486.029-.971.078-1.55.128-.171-1.071-.335-2.127-.514-3.234.543.043.978.078 1.414.1 1.107.064 2.192 0 3.235-.414.971-.393 1.499-1.221 1.342-2.121-.136-.757-.65-1.164-1.328-1.4-1.328-.457-2.671-.378-3.999-.035-.785.2-1.542.528-2.371.814-.064-.236-.178-.543-.221-.864a23.572 23.572 0 01-.2-1.878c-.007-.114.107-.286.214-.35.872-.507 1.828-.793 2.814-.978 1.671-.329 3.349-.372 5.02.035 1.099.265 2.092.75 2.827 1.636 1.492 1.799 1.043 4.662-.928 6.005-.207.142-.429.278-.643.414l-.014.007z"/><path d="M196.892 170.634c-1.778 0-2.649-.792-3.071-1.457-1.235-1.942-.007-4.762 1.657-8.325-2.835.235-7.233-.222-10.204-5.477a1.704 1.704 0 011.171-2.506c12.575-2.3 14.567-10.211 14.645-10.547a1.69 1.69 0 012.021-1.285 1.702 1.702 0 011.293 2.028c-.022.114-.629 2.77-3.128 5.705-1.971 2.314-5.534 5.241-11.639 6.869 2.171 2.221 4.784 2.028 7.126 1.621 1.007-.171 2.042-.35 2.764.578.421.543.492 1.257.2 1.921-.307.679-.629 1.357-.936 2.021-.792 1.692-2.085 4.434-2.092 5.462.05 0 .114.008.193.008 1.714 0 2.656-1.5 4.056-3.956 1.606-2.814 3.598-6.327 8.183-6.184.656.022 2.242.286 2.891 2.342.286.893.343 1.95.4 3.063.186 3.385.55 4.542 2.335 4.727h.107c.372-.671.35-3.277.329-5.391-.014-1.728-.036-3.684.064-5.898a2.133 2.133 0 01.721-1.521c.886-.785 2.164-.699 3.399-.607.114.008.257.022.407.029-.657-4.713-3.484-11.56-6.733-16.78-4.327.707-7.326.885-8.233.778-3.021-.35-4.534-1.635-5.27-2.656-.921-1.271-1.214-2.878-.85-4.656.165-.799.757-2.784 2.657-3.863 1.57-.892 3.563-.921 5.919-.092 2.763.971 5.348 3.805 7.398 6.733a109.568 109.568 0 0017.515-4.82c-6.076-3.056-10.811-6.469-14.495-9.868-14.681-13.545-14.717-28.169-14.381-32.332.985-12.132 5.927-18.815 13.56-18.344 4.655.286 8.333 3.492 10.632 9.261.093.236.179.465.264.693 2.821-10.732 8.305-22.728 18.965-29.84 8.069-5.377 16.259-6.09 21.229-4.963 4.82 1.093 9.332 4.32 12.389 8.847 2.534 3.763 5.298 10.268 4.034 19.908-1.799 13.76-6.955 25.799-15.309 35.788-6.727 8.047-15.524 14.759-26.134 19.951-.714.349-1.421.685-2.128 1.013 5.591 2.143 11.789 3.842 18.565 5.084 20.686 3.785 46.513 3.207 76.767-1.72.921-.15 1.8.478 1.95 1.399a1.7 1.7 0 01-1.4 1.95c-18.237 2.97-33.974 4.234-47.534 4.234-23.478 0-40.451-3.785-52.704-9.061-7.297 2.956-14.252 4.812-19.8 5.926.471.807.892 1.571 1.249 2.242 3.021 5.727 5.141 12.068 5.398 16.145a2.157 2.157 0 01-.635 1.706c-.893.886-2.228.786-3.52.693-.15-.007-.336-.021-.529-.036-.05 1.7-.035 3.249-.021 4.649.036 3.97.057 6.59-1.471 7.983-.486.443-1.35.942-2.699.807-4.97-.507-5.227-5.141-5.377-7.919-.036-.707-.093-1.728-.236-2.199-2.27.043-3.356 1.742-4.912 4.47-1.435 2.52-3.228 5.662-7.005 5.662l-.007.007zm7.24-41.243c-.442 0-.814.085-1.107.25-.692.392-.928 1.242-1.006 1.592-.172.828-.079 1.492.278 1.978.479.657 1.514 1.114 2.913 1.271.443.036 2.507-.071 5.691-.536-1.635-2.113-3.284-3.641-4.748-4.155-.771-.272-1.45-.407-2.014-.407l-.007.007zm12.011-58.066c-7.134 0-8.983 9.496-9.454 15.251-.308 3.778-.258 17.059 13.295 29.562 4.556 4.206 10.068 7.762 16.487 10.668 1.7-.714 3.428-1.5 5.156-2.349 10.139-4.991 18.522-11.411 24.913-19.08 7.89-9.468 12.76-20.893 14.467-33.96 2.042-15.58-7.141-23.492-13.81-25.006-4.092-.928-11.411-.314-18.594 4.477-12.203 8.14-17.123 23.521-19.108 34.989a1.693 1.693 0 01-3.356-.136c-.014-.136-1.399-13.91-9.49-14.41-.171-.014-.342-.014-.514-.014l.008.008z"/><path d="M192.793 126.549a1.695 1.695 0 01-.971-3.085c.379-.271 1.407-1.207 1.557-2.228.05-.328.05-.85-.507-1.578a5.912 5.912 0 01-1.143-2.542c-.4-2.235.529-4.441 2.428-5.748 1.906-1.314 4.306-1.392 6.262-.214.986.6 1.85 1.471 2.556 2.606 1.664 2.635 1.921 5.477.715 7.798-1.093 2.092-3.856 4.662-10.825 4.998h-.079l.007-.007zm4.677-12.832c-.471 0-.95.15-1.385.45-.8.55-1.178 1.428-1.014 2.349.071.379.236.736.5 1.093.978 1.285 1.378 2.728 1.149 4.163a6.6 6.6 0 01-.207.864c2.1-.536 3.542-1.435 4.17-2.649.636-1.214.422-2.828-.578-4.42-.428-.679-.914-1.186-1.442-1.507a2.311 2.311 0 00-1.2-.343h.007z"/><path d="M188.98 113.189h-.157a2.887 2.887 0 01-2.492-1.714l-2.778-6.233a2.547 2.547 0 01.422-2.728 2.54 2.54 0 012.656-.728l5.669 1.792 2.064-3.549a3.075 3.075 0 012.749-1.52 3.055 3.055 0 012.642 1.691l2.156 4.306a3.176 3.176 0 01-.428 3.492 3.178 3.178 0 01-3.385.971l-4.234-1.342-2.392 4.112a2.88 2.88 0 01-2.499 1.443l.007.007zm-1.549-7.59l1.613 3.606 1.521-2.614-3.134-.992zm8.197-.964l3.042.964-1.664-3.328-1.378 2.364z"/></g><g clip-path="url(#clip1_1_821)" fill="#fff"><path d="M112.717 87.088c.839 0 1.694-.032 2.533 0 1.14.048 1.757 1.229.997 2.058-3.863 4.356-5.129 9.813-6.475 15.254-1.489 6.063-3.848 11.711-7.584 16.737-4.244 5.696-9.738 9.685-16.309 12.206-6.111 2.33-12.46 3.271-18.968 3.367-1.203.016-1.662-.463-1.63-1.723.094-3.511.728-6.941 1.63-10.308 1.694-6.318 4.212-12.27 7.933-17.678 6.697-9.75 15.785-15.94 27.264-18.477 3.484-.766 7.062-1.117 10.577-1.643l.032.191v.016zM1.108 109.346c0-.415-.031-.83 0-1.229.111-.989 1.109-1.468 1.948-.925.142.096.285.207.396.335 2.865 3.143 6.618 4.388 10.64 4.866 3.166.383 6.38.495 9.563.734 6.238.463 12.429 1.277 18.477 2.984 6.745 1.899 11.274 6.302 14.155 12.589 1.663 3.622 2.565 7.451 2.993 11.408.031.287.047.59.031.878-.047.957-.966 1.627-1.773 1.133-5.257-3.239-11.147-2.936-16.926-3.096-3.261-.096-6.523.096-9.769-.048-5.969-.287-11.764-1.436-17.084-4.372-6.175-3.398-10.007-8.552-11.337-15.508-.617-3.207-.981-6.478-1.456-9.717a.455.455 0 00.142-.032zm27.851-24.731c0-3.447.776-6.654 2.613-9.605 1.868-3.016 4.908-3.415 7.489-1.006 4.987 4.66 8.17 10.34 9.769 16.993 1.44 5.968 4.386 11.137 8.708 15.477.285.287.57.59.84.893.743.862 1.187 1.819.76 2.984-.444 1.229-1.315 2.011-2.597 2.218-2.93.463-5.843.191-8.582-.894-10.91-4.244-16.783-12.572-18.826-23.917-.11-.606-.127-1.228-.174-1.835-.032-.43 0-.877 0-1.324v.016zm41.847 10.148c0 3.717-.839 7.052-2.644 10.131-1.63 2.761-4.845 3.207-7.204 1.069-5.304-4.802-8.534-10.77-10.212-17.71-1.394-5.728-4.276-10.659-8.424-14.839-.269-.271-.538-.542-.791-.814-.935-.957-1.299-2.074-.824-3.366.475-1.309 1.489-1.851 2.787-2.058 3.293-.511 6.428.08 9.468 1.324 6.397 2.617 10.957 7.244 14.266 13.243 2.248 4.085 3.483 8.472 3.594 13.004l-.016.016zm10.925 60.088h14.092v13.562h2.454v8.217h-4.671v-3.813H82.222v3.797h-4.798v-8.137c.143-.032.222-.064.301-.08 2.201-.127 2.644-.478 2.898-2.728.396-3.574.728-7.164 1.108-10.834v.016zm9.278 13.53v-9.254h-4.892c-.523 3.112-.254 6.271-1.44 9.254h6.332zm-31.334 4.34v-17.822c.19-.032.349-.096.507-.096 3.34 0 6.697 0 10.038.048 1.235.016 2.423.367 3.404 1.181 2.09 1.707 1.885 5.361-.38 6.845-.205.143-.427.271-.665.431.523.287.998.494 1.41.797 1.646 1.197 2.026 2.904 1.662 4.771-.348 1.851-1.552 3.063-3.388 3.51-.871.208-1.79.319-2.676.335-3.12.032-6.223.016-9.342 0-.174 0-.332-.016-.585-.032l.015.032zm4.782-7.323v3.414h3.61c.428 0 .87-.016 1.298-.096.887-.159 1.489-.877 1.473-1.691-.016-.782-.602-1.548-1.457-1.595-1.615-.08-3.23-.032-4.924-.032zm-.047-6.686c0 1.021-.016 1.947.015 2.872 0 .144.27.415.412.415 1.33-.016 2.676-.016 3.99-.159.76-.08 1.25-.671 1.25-1.452 0-.782-.442-1.309-1.187-1.532-.253-.064-.506-.144-.76-.144h-3.72zM4.782 172.721H0v-17.838h16.752v17.822h-4.703v-13.578H4.782v13.594zm52.265.032c-1.741 0-3.42.016-5.098-.016-.206 0-.491-.271-.586-.478-.3-.702-.49-1.436-.807-2.122-.111-.24-.475-.511-.729-.511a115.35 115.35 0 00-5.763 0c-.253 0-.507.319-.744.495-.064.047-.064.159-.095.239-.301.782-.412 1.851-.982 2.266-.538.399-1.567.111-2.375.127h-3.103c.126-.335.206-.59.3-.845a6920.637 6920.637 0 006.397-16.323c.222-.574.491-.814 1.124-.798 1.6.048 3.199.032 4.798 0 .459 0 .728.096.918.575 2.185 5.6 4.402 11.201 6.603 16.801.063.159.079.319.142.574v.016zm-8.059-7.036c-.697-1.931-1.346-3.718-1.995-5.521-.063 0-.143.032-.206.048-.633 1.803-1.25 3.606-1.916 5.489h4.117v-.016zm50.65 7.036c.84-2.138 1.647-4.18 2.439-6.206 1.441-3.67 2.897-7.34 4.306-11.026.222-.558.491-.75 1.077-.734 1.599.048 3.198.032 4.798 0 .49 0 .775.128.965.639 2.17 5.552 4.355 11.105 6.54 16.657.079.192.126.383.205.686-1.773 0-3.483 0-5.193-.016-.174 0-.427-.255-.522-.447a22.57 22.57 0 01-.76-2.058c-.143-.463-.349-.654-.855-.654-1.885.032-3.785 0-5.669.032-.269 0-.649.303-.776.574-.285.575-.475 1.197-.649 1.803-.158.543-.411.798-1.045.782-1.583-.048-3.182-.016-4.892-.016l.031-.016zm10.292-12.557h-.206c-.633 1.819-1.266 3.638-1.931 5.489h4.1c-.68-1.883-1.33-3.686-1.979-5.489h.016zm-84.66 12.525h-4.718v-17.838c.205-.032.411-.08.633-.08 2.85 0 5.7-.032 8.55.08 1.852.064 3.689.463 4.94 2.01.586.718 1.06 1.644 1.219 2.553.427 2.266.348 4.516-1.362 6.335-1.092 1.18-2.549 1.659-4.069 1.739-1.71.096-3.42.016-5.209.016v5.185h.016zm.016-9.126c1.583-.096 3.055-.08 4.512-.303 1.06-.16 1.536-.942 1.552-2.027 0-1.101-.491-1.962-1.568-2.122-1.472-.223-2.976-.223-4.512-.319v4.755l.016.016zm46.787 32.597v2.489h-1.726v-2.489h-1.346c-2.074-.048-4.132-.224-5.985-1.325-2.39-1.404-3.103-3.606-2.818-6.222.253-2.346 1.567-3.989 3.736-4.755 1.299-.463 2.708-.638 4.07-.846.712-.111 1.44-.016 2.28-.016v-2.185h1.741v2.169h1.441c2.09 0 4.117.256 5.953 1.357 2.375 1.436 3.04 3.669 2.724 6.27-.27 2.314-1.584 3.957-3.737 4.643-1.615.511-3.34.638-5.035.894-.396.064-.807 0-1.33 0l.032.016zm-1.805-11.584c-1.932-.08-3.784-.08-5.526.686-1.71.734-2.644 2.058-2.755 3.941-.11 1.644.348 3.127 1.742 4.085 1.979 1.372 4.243 1.356 6.555 1.276v-9.988h-.016zm1.82 10.004c1.996.064 3.896.016 5.7-.782 3.341-1.468 3.294-6.254.84-7.961-1.98-1.373-4.228-1.373-6.54-1.245v9.988zm-34.642-4.914c.031-5.106 4.275-9.175 9.531-9.143 5.083.032 9.247 4.276 9.2 9.398-.032 5.01-4.339 9.095-9.532 9.063-5.051-.032-9.231-4.26-9.2-9.302v-.016zm16.846.143c.048-4.196-3.23-7.546-7.426-7.562-4.18-.032-7.489 3.223-7.568 7.451-.08 4.1 3.293 7.531 7.442 7.563 4.195.032 7.505-3.223 7.536-7.452h.016zm32.807-9.014h13.046v1.579H88.888v6.478h10.386v1.548H88.872v6.701h11.558v1.564H87.098v-17.87zm-67.197.079c.111-.047.19-.095.27-.111 1.488-.16 1.504-.144 1.504 1.356v6.685c.902 0 1.71.048 2.501-.032.27-.016.539-.303.76-.51 2.075-2.138 4.196-4.228 6.175-6.462.903-1.021 1.884-1.213 3.262-.957-2.818 2.919-5.542 5.759-8.376 8.679 2.913 3.016 5.81 6.016 8.835 9.143-1.25.064-2.217.255-3.135-.766-2.042-2.25-4.243-4.34-6.317-6.574-.681-.734-1.362-1.117-2.344-.973-.395.064-.807 0-1.298 0-.016.383-.063.686-.063.989v6.159c0 .84-.412 1.239-1.235 1.197-.174 0-.333-.048-.539-.08V180.89v.016z"/></g><defs><clipPath id="clip0_1_821"><path fill="#fff" transform="translate(183.332 42.648)" d="M0 0h178.512v158.161H0z"/></clipPath><clipPath id="clip1_1_821"><path fill="#fff" transform="translate(0 67)" d="M0 0h120v132H0z"/></clipPath><linearGradient id="paint0_linear_1_821" x1="366.55" y1="-53.147" x2="366.55" y2="137.065" gradientUnits="userSpaceOnUse"><stop stop-color="#E51D3E"/><stop offset="1" stop-color="#fff"/></linearGradient></defs></svg>