<svg width="742" height="565" fill="none" xmlns="http://www.w3.org/2000/svg"><path d="M13.76 177.92v-1.17c.432-.12.852-.342 1.26-.666.84-.696 1.26-1.644 1.26-2.844 0-.972-.306-1.77-.918-2.394-.612-.624-1.386-.936-2.322-.936-.936 0-1.71.312-2.322.936-.612.624-.918 1.422-.918 2.394 0 .9.258 1.68.774 2.34.204.3.456.54.756.72v1.08l-6.93-.54v-7.29h1.08v6.3l4.302.36H9.8a2.998 2.998 0 01-.54-.738c-.36-.648-.54-1.392-.54-2.232 0-1.296.414-2.37 1.242-3.222.828-.852 1.854-1.278 3.078-1.278 1.224 0 2.25.426 3.078 1.278.828.852 1.242 1.926 1.242 3.222 0 1.68-.6 2.958-1.8 3.834a4.977 4.977 0 01-1.8.846zm1.782-12.676c-1.224 1.068-2.838 1.602-4.842 1.602-2.004 0-3.612-.534-4.824-1.602-1.224-1.068-1.836-2.394-1.836-3.978s.612-2.91 1.836-3.978c1.212-1.068 2.82-1.602 4.824-1.602s3.618.534 4.842 1.602c1.212 1.068 1.818 2.394 1.818 3.978s-.606 2.91-1.818 3.978zm-8.928-.81c.984.828 2.346 1.242 4.086 1.242 1.74 0 3.108-.414 4.104-1.242.984-.84 1.476-1.896 1.476-3.168 0-1.272-.492-2.322-1.476-3.15-.996-.84-2.364-1.26-4.104-1.26-1.74 0-3.102.42-4.086 1.26-.996.828-1.494 1.878-1.494 3.15s.498 2.328 1.494 3.168zm8.928-12.514c-1.224 1.068-2.838 1.602-4.842 1.602-2.004 0-3.612-.534-4.824-1.602-1.224-1.068-1.836-2.394-1.836-3.978s.612-2.91 1.836-3.978c1.212-1.068 2.82-1.602 4.824-1.602s3.618.534 4.842 1.602c1.212 1.068 1.818 2.394 1.818 3.978s-.606 2.91-1.818 3.978zm-8.928-.81c.984.828 2.346 1.242 4.086 1.242 1.74 0 3.108-.414 4.104-1.242.984-.84 1.476-1.896 1.476-3.168 0-1.272-.492-2.322-1.476-3.15-.996-.84-2.364-1.26-4.104-1.26-1.74 0-3.102.42-4.086 1.26-.996.828-1.494 1.878-1.494 3.15s.498 2.328 1.494 3.168zm8.928-12.515c-1.224 1.068-2.838 1.602-4.842 1.602-2.004 0-3.612-.534-4.824-1.602-1.224-1.068-1.836-2.394-1.836-3.978s.612-2.91 1.836-3.978c1.212-1.068 2.82-1.602 4.824-1.602s3.618.534 4.842 1.602c1.212 1.068 1.818 2.394 1.818 3.978s-.606 2.91-1.818 3.978zm-8.928-.81c.984.828 2.346 1.242 4.086 1.242 1.74 0 3.108-.414 4.104-1.242.984-.84 1.476-1.896 1.476-3.168 0-1.272-.492-2.322-1.476-3.15-.996-.84-2.364-1.26-4.104-1.26-1.74 0-3.102.42-4.086 1.26-.996.828-1.494 1.878-1.494 3.15s.498 2.328 1.494 3.168zm8.928-12.514c-1.224 1.068-2.838 1.602-4.842 1.602-2.004 0-3.612-.534-4.824-1.602-1.224-1.068-1.836-2.394-1.836-3.978s.612-2.91 1.836-3.978c1.212-1.068 2.82-1.602 4.824-1.602s3.618.534 4.842 1.602c1.212 1.068 1.818 2.394 1.818 3.978s-.606 2.91-1.818 3.978zm-8.928-.81c.984.828 2.346 1.242 4.086 1.242 1.74 0 3.108-.414 4.104-1.242.984-.84 1.476-1.896 1.476-3.168 0-1.272-.492-2.322-1.476-3.15-.996-.84-2.364-1.26-4.104-1.26-1.74 0-3.102.42-4.086 1.26-.996.828-1.494 1.878-1.494 3.15s.498 2.328 1.494 3.168zm9.234-16.965c-.9.852-2.016 1.278-3.348 1.278-1.332 0-2.442-.426-3.33-1.278-.9-.864-1.35-1.908-1.35-3.132 0-1.428.528-2.562 1.584-3.402a4.562 4.562 0 011.566-.828v1.08c-.42.168-.78.39-1.08.666-.72.624-1.08 1.452-1.08 2.484 0 .912.354 1.698 1.062 2.358.696.648 1.572.972 2.628.972s1.938-.324 2.646-.972c.696-.66 1.044-1.446 1.044-2.358 0-1.044-.39-1.896-1.17-2.556-.36-.312-.75-.54-1.17-.684v-1.08c.612.18 1.17.462 1.674.846 1.104.912 1.656 2.07 1.656 3.474 0 1.224-.444 2.268-1.332 3.132zM8.99 99.228H8v-7.56h.99v3.24H17v1.08H8.99v3.24zm6.858-9.714c-.9.84-2.016 1.26-3.348 1.26-1.332 0-2.442-.42-3.33-1.26-.9-.84-1.35-1.86-1.35-3.06 0-.852.21-1.572.63-2.16.408-.588.858-1.002 1.35-1.242v-.018H8v-1.08h9v1.08h-1.8v.018c.492.24.948.654 1.368 1.242.408.588.612 1.308.612 2.16 0 1.2-.444 2.22-1.332 3.06zm-5.976-.792c.696.648 1.572.972 2.628.972s1.938-.324 2.646-.972c.696-.66 1.044-1.446 1.044-2.358 0-.888-.348-1.662-1.044-2.322-.708-.672-1.59-1.008-2.646-1.008-1.056 0-1.932.336-2.628 1.008-.708.66-1.062 1.434-1.062 2.322 0 .912.354 1.698 1.062 2.358zM17 79.07H8v-1.08h3.78v-2.16L8 72.86V71.6l4.32 3.33 4.68-3.6v1.26l-4.23 3.24v2.16H17v1.08zm-1.152-9.542c-.9.84-2.016 1.26-3.348 1.26-1.332 0-2.442-.42-3.33-1.26-.9-.84-1.35-1.86-1.35-3.06 0-.852.21-1.572.63-2.16.408-.588.858-1.002 1.35-1.242v-.018H8v-1.08h9v1.08h-1.8v.018c.492.24.948.654 1.368 1.242.408.588.612 1.308.612 2.16 0 1.2-.444 2.22-1.332 3.06zm-5.976-.792c.696.648 1.572.972 2.628.972s1.938-.324 2.646-.972c.696-.66 1.044-1.446 1.044-2.358 0-.888-.348-1.662-1.044-2.322-.708-.672-1.59-1.008-2.646-1.008-1.056 0-1.932.336-2.628 1.008-.708.66-1.062 1.434-1.062 2.322 0 .912.354 1.698 1.062 2.358zM17 59.083H8v-1.08h3.96v-5.4H8v-1.08h9v1.08h-4.05v5.4H17v1.08zm-5.85-10.171H8v-1.08h3.15c1.44 0 2.16-.75 2.16-2.25a5.34 5.34 0 00-.396-2.034 4.179 4.179 0 00-.414-.756H8v-1.08h9v1.08h-3.51c.132.18.27.432.414.756a5.34 5.34 0 01.396 2.034c0 1.032-.282 1.848-.846 2.448-.576.588-1.344.882-2.304.882zM17 38.833H8v-1.08h7.29l.18.018v-.018L8 32.533v-1.26h9v1.08H9.71l-.18-.018v.018l7.47 5.22v1.26zm0-10.441H8v-1.08h3.78v-2.16L8 22.182v-1.26l4.32 3.33 4.68-3.6v1.26l-4.23 3.24v2.16H17v1.08zm-1.152-9.596c-.888.876-2.004 1.314-3.348 1.314-1.344 0-2.46-.438-3.348-1.314-.888-.876-1.332-1.968-1.332-3.276 0-1.308.444-2.4 1.332-3.276.888-.876 2.004-1.314 3.348-1.314 1.344 0 2.46.438 3.348 1.314.888.876 1.332 1.968 1.332 3.276 0 1.308-.444 2.4-1.332 3.276zm-5.994-.774c.696.672 1.578 1.008 2.646 1.008 1.068 0 1.95-.336 2.646-1.008.696-.672 1.044-1.506 1.044-2.502 0-.996-.348-1.83-1.044-2.502-.696-.672-1.578-1.008-2.646-1.008-1.068 0-1.95.336-2.646 1.008-.696.672-1.044 1.506-1.044 2.502 0 .996.348 1.83 1.044 2.502zM17 8.687H8v-4.23c0-.852.216-1.512.648-1.98.432-.48.996-.72 1.692-.72.912 0 1.536.45 1.872 1.35h.018c0-.036.018-.108.054-.216.036-.108.108-.246.216-.414.108-.18.24-.348.396-.504.156-.156.372-.288.648-.396.276-.12.588-.18.936-.18.744 0 1.35.27 1.818.81.468.528.702 1.272.702 2.232v4.248zm-5.22-1.08v-3.15c0-.528-.12-.93-.36-1.206-.24-.276-.57-.414-.99-.414-.96 0-1.44.54-1.44 1.62v3.15h2.79zm4.23 0v-3.15c0-1.32-.54-1.98-1.62-1.98s-1.62.66-1.62 1.98v3.15h3.24z" fill="#F37C00"/><path d="M7.55 564.55H6.29l-1.89-2.43v-1.08H17v1.17H5.75l1.8 2.34zm5.4-5.842a8.68 8.68 0 01-.576-.018 3.363 3.363 0 01-.558-.126 4.81 4.81 0 00-.468-.126c-.132-.024-.3-.096-.504-.216a5.488 5.488 0 00-.414-.252c-.084-.036-.24-.138-.468-.306l-.432-.324c-.048-.036-.21-.168-.486-.396-.288-.228-.456-.36-.504-.396l-4.14-3.24v-1.35l4.212 3.33.09.072.018.018-.09-.36c-.06-.3-.09-.69-.09-1.17 0-1.26.432-2.322 1.296-3.186.852-.876 1.89-1.314 3.114-1.314s2.268.45 3.132 1.35c.852.888 1.278 1.998 1.278 3.33s-.426 2.448-1.278 3.348c-.864.888-1.908 1.332-3.132 1.332zm-2.376-2.16c.636.66 1.428.99 2.376.99s1.74-.33 2.376-.99c.636-.66.954-1.5.954-2.52s-.318-1.86-.954-2.52c-.636-.66-1.428-.99-2.376-.99s-1.74.33-2.376.99c-.636.66-.954 1.5-.954 2.52s.318 1.86.954 2.52zm8.586-13.154h-3.15v-.99L8 540.244v-3.42l8.01-2.16v-.99h3.15v.99H17v7.74h2.16v.99zm-3.15-2.07v-5.58l-7.02 1.89v1.8l7.02 1.89zm-.162-9.842c-.888.864-2.004 1.296-3.348 1.296-1.344 0-2.46-.432-3.348-1.296-.888-.864-1.332-1.932-1.332-3.204 0-1.26.444-2.322 1.332-3.186.876-.876 1.962-1.314 3.258-1.314h.45v7.92c.948-.048 1.74-.396 2.376-1.044.636-.648.954-1.44.954-2.376 0-1.032-.33-1.878-.99-2.538a2.825 2.825 0 00-.99-.702v-1.08a4.648 4.648 0 011.494.918c.984.888 1.476 2.022 1.476 3.402 0 1.272-.444 2.34-1.332 3.204zm-3.978.216v-6.75c-.876.096-1.602.456-2.178 1.08-.588.612-.882 1.362-.882 2.25 0 .888.288 1.644.864 2.268.576.624 1.308 1.008 2.196 1.152zm-2.88-8.817H8v-7.56h.99v3.24H17v1.08H8.99v3.24zm6.858-9.751c-.888.864-2.004 1.296-3.348 1.296-1.344 0-2.46-.432-3.348-1.296-.888-.864-1.332-1.932-1.332-3.204 0-1.26.444-2.322 1.332-3.186.876-.876 1.962-1.314 3.258-1.314h.45v7.92c.948-.048 1.74-.396 2.376-1.044.636-.648.954-1.44.954-2.376 0-1.032-.33-1.878-.99-2.538a2.825 2.825 0 00-.99-.702v-1.08a4.648 4.648 0 011.494.918c.984.888 1.476 2.022 1.476 3.402 0 1.272-.444 2.34-1.332 3.204zm-3.978.216v-6.75c-.876.096-1.602.456-2.178 1.08-.588.612-.882 1.362-.882 2.25 0 .888.288 1.644.864 2.268.576.624 1.308 1.008 2.196 1.152zM17 503.179H8v-1.08h7.29l.18.018v-.018L8 496.879v-1.26h9v1.08H9.71l-.18-.018v.018l7.47 5.22v1.26zm-12.42-1.26v-.99c.372 0 .678-.132.918-.396.228-.264.342-.642.342-1.134 0-.492-.114-.87-.342-1.134a1.186 1.186 0 00-.918-.396v-.99c.6 0 1.11.234 1.53.702.42.468.63 1.074.63 1.818s-.21 1.35-.63 1.818c-.42.468-.93.702-1.53.702z" fill="#E51D3E"/><path d="M524.389 381.98l.06.164h1.13c1.775 0 3.171 1.298 3.171 2.85 0 1.551-1.396 2.85-3.171 2.85h-3.97l-.025.222-4.823 43.709c-.159 1.439-1.505 2.569-3.156 2.569h-34.21c-1.65 0-2.997-1.13-3.156-2.569l-4.823-43.709-.025-.222h-3.97c-1.775 0-3.171-1.299-3.171-2.85 0-1.552 1.396-2.85 3.171-2.85h1.13l.06-.164 2.641-7.18-.234-.087.234.087c.426-1.156 1.631-1.956 3.011-1.956h44.474c1.38 0 2.586.8 3.011 1.956l.234-.087-.234.087 2.641 7.18zm0-62l.06.164h1.13c1.775 0 3.171 1.298 3.171 2.85 0 1.551-1.396 2.85-3.171 2.85h-3.97l-.025.222-4.823 43.709c-.159 1.439-1.505 2.569-3.156 2.569h-34.21c-1.65 0-2.997-1.13-3.156-2.569l-4.823-43.709-.025-.222h-3.97c-1.775 0-3.171-1.299-3.171-2.85 0-1.552 1.396-2.85 3.171-2.85h1.13l.06-.164 2.641-7.18-.234-.087.234.087c.426-1.156 1.631-1.956 3.011-1.956h44.474c1.38 0 2.586.8 3.011 1.956l.234-.087-.234.087 2.641 7.18zm0-62l.06.164h1.13c1.775 0 3.171 1.298 3.171 2.85 0 1.551-1.396 2.85-3.171 2.85h-3.97l-.025.222-4.823 43.709c-.159 1.439-1.505 2.569-3.156 2.569h-34.21c-1.65 0-2.997-1.13-3.156-2.569l-4.823-43.709-.025-.222h-3.97c-1.775 0-3.171-1.299-3.171-2.85 0-1.552 1.396-2.85 3.171-2.85h1.13l.06-.164 2.641-7.18-.234-.087.234.087c.426-1.156 1.631-1.956 3.011-1.956h44.474c1.38 0 2.586.8 3.011 1.956l.234-.087-.234.087 2.641 7.18zm0-62l.06.164h1.13c1.775 0 3.171 1.298 3.171 2.85 0 1.551-1.396 2.85-3.171 2.85h-3.97l-.025.222-4.823 43.709c-.159 1.439-1.505 2.569-3.156 2.569h-34.21c-1.65 0-2.997-1.13-3.156-2.569l-4.823-43.709-.025-.222h-3.97c-1.775 0-3.171-1.299-3.171-2.85 0-1.552 1.396-2.85 3.171-2.85h1.13l.06-.164 2.641-7.18-.234-.087.234.087c.426-1.156 1.631-1.956 3.011-1.956h44.474c1.38 0 2.586.8 3.011 1.956l.234-.087-.234.087 2.641 7.18zm0-62l.06.164h1.13c1.775 0 3.171 1.298 3.171 2.85 0 1.551-1.396 2.85-3.171 2.85h-3.97l-.025.222-4.823 43.709c-.159 1.439-1.505 2.569-3.156 2.569h-34.21c-1.65 0-2.997-1.13-3.156-2.569l-4.823-43.709-.025-.222h-3.97c-1.775 0-3.171-1.299-3.171-2.85 0-1.552 1.396-2.85 3.171-2.85h1.13l.06-.164 2.641-7.18-.234-.087.234.087c.426-1.156 1.631-1.956 3.011-1.956h44.474c1.38 0 2.586.8 3.011 1.956l.234-.087-.234.087 2.641 7.18z" fill="#FDEDDB" stroke="#F37C00" stroke-width=".5"/><path fill-rule="evenodd" clip-rule="evenodd" d="M471.018 64.713c.465-1.265 1.773-2.12 3.245-2.12h44.474c1.472 0 2.78.855 3.245 2.12l2.642 7.18h.955c1.889 0 3.421 1.389 3.421 3.1 0 1.713-1.532 3.1-3.421 3.1h-3.746l-4.824 43.709c-.175 1.585-1.646 2.792-3.404 2.792h-34.21c-1.758 0-3.229-1.207-3.404-2.792l-4.824-43.708h-3.746c-1.889 0-3.421-1.388-3.421-3.1 0-1.712 1.532-3.1 3.421-3.1h.955l2.642-7.18zm0-62c.465-1.265 1.773-2.12 3.245-2.12h44.474c1.472 0 2.78.855 3.245 2.12l2.642 7.18h.955c1.889 0 3.421 1.389 3.421 3.1 0 1.713-1.532 3.1-3.421 3.1h-3.746l-4.824 43.71c-.175 1.584-1.646 2.79-3.404 2.79h-34.21c-1.758 0-3.229-1.206-3.404-2.79l-4.824-43.71h-3.746c-1.889 0-3.421-1.387-3.421-3.1 0-1.711 1.532-3.1 3.421-3.1h.955l2.642-7.18z" fill="#F37C00"/><path d="M736.389 381.98l.06.164h1.13c1.775 0 3.171 1.298 3.171 2.85 0 1.551-1.396 2.85-3.171 2.85h-3.97l-.025.222-4.823 43.709c-.159 1.439-1.505 2.569-3.156 2.569h-34.21c-1.65 0-2.997-1.13-3.156-2.569l-4.823-43.709-.025-.222h-3.97c-1.775 0-3.171-1.299-3.171-2.85 0-1.552 1.396-2.85 3.171-2.85h1.13l.06-.164 2.641-7.18-.234-.087.234.087c.426-1.156 1.631-1.956 3.011-1.956h44.474c1.38 0 2.586.8 3.011 1.956l.234-.087-.234.087 2.641 7.18zm0-62l.06.164h1.13c1.775 0 3.171 1.298 3.171 2.85 0 1.551-1.396 2.85-3.171 2.85h-3.97l-.025.222-4.823 43.709c-.159 1.439-1.505 2.569-3.156 2.569h-34.21c-1.65 0-2.997-1.13-3.156-2.569l-4.823-43.709-.025-.222h-3.97c-1.775 0-3.171-1.299-3.171-2.85 0-1.552 1.396-2.85 3.171-2.85h1.13l.06-.164 2.641-7.18-.234-.087.234.087c.426-1.156 1.631-1.956 3.011-1.956h44.474c1.38 0 2.586.8 3.011 1.956l.234-.087-.234.087 2.641 7.18zm0-62l.06.164h1.13c1.775 0 3.171 1.298 3.171 2.85 0 1.551-1.396 2.85-3.171 2.85h-3.97l-.025.222-4.823 43.709c-.159 1.439-1.505 2.569-3.156 2.569h-34.21c-1.65 0-2.997-1.13-3.156-2.569l-4.823-43.709-.025-.222h-3.97c-1.775 0-3.171-1.299-3.171-2.85 0-1.552 1.396-2.85 3.171-2.85h1.13l.06-.164 2.641-7.18-.234-.087.234.087c.426-1.156 1.631-1.956 3.011-1.956h44.474c1.38 0 2.586.8 3.011 1.956l.234-.087-.234.087 2.641 7.18zm0-62l.06.164h1.13c1.775 0 3.171 1.298 3.171 2.85 0 1.551-1.396 2.85-3.171 2.85h-3.97l-.025.222-4.823 43.709c-.159 1.439-1.505 2.569-3.156 2.569h-34.21c-1.65 0-2.997-1.13-3.156-2.569l-4.823-43.709-.025-.222h-3.97c-1.775 0-3.171-1.299-3.171-2.85 0-1.552 1.396-2.85 3.171-2.85h1.13l.06-.164 2.641-7.18-.234-.087.234.087c.426-1.156 1.631-1.956 3.011-1.956h44.474c1.38 0 2.586.8 3.011 1.956l.234-.087-.234.087 2.641 7.18zm0-62l.06.164h1.13c1.775 0 3.171 1.298 3.171 2.85 0 1.551-1.396 2.85-3.171 2.85h-3.97l-.025.222-4.823 43.709c-.159 1.439-1.505 2.569-3.156 2.569h-34.21c-1.65 0-2.997-1.13-3.156-2.569l-4.823-43.709-.025-.222h-3.97c-1.775 0-3.171-1.299-3.171-2.85 0-1.552 1.396-2.85 3.171-2.85h1.13l.06-.164 2.641-7.18-.234-.087.234.087c.426-1.156 1.631-1.956 3.011-1.956h44.474c1.38 0 2.586.8 3.011 1.956l.234-.087-.234.087 2.641 7.18z" fill="#FDEDDB" stroke="#F37C00" stroke-width=".5"/><path fill-rule="evenodd" clip-rule="evenodd" d="M683.018 64.713c.465-1.265 1.773-2.12 3.245-2.12h44.474c1.472 0 2.78.855 3.245 2.12l2.642 7.18h.955c1.889 0 3.421 1.389 3.421 3.1 0 1.713-1.532 3.1-3.421 3.1h-3.746l-4.824 43.709c-.175 1.585-1.646 2.792-3.404 2.792h-34.21c-1.758 0-3.229-1.207-3.404-2.792l-4.824-43.708h-3.746c-1.889 0-3.421-1.388-3.421-3.1 0-1.712 1.532-3.1 3.421-3.1h.955l2.642-7.18zm0-62c.465-1.265 1.773-2.12 3.245-2.12h44.474c1.472 0 2.78.855 3.245 2.12l2.642 7.18h.955c1.889 0 3.421 1.389 3.421 3.1 0 1.713-1.532 3.1-3.421 3.1h-3.746l-4.824 43.71c-.175 1.584-1.646 2.79-3.404 2.79h-34.21c-1.758 0-3.229-1.206-3.404-2.79l-4.824-43.71h-3.746c-1.889 0-3.421-1.387-3.421-3.1 0-1.711 1.532-3.1 3.421-3.1h.955l2.642-7.18z" fill="#F37C00"/><path d="M450.389 381.98l.06.164h1.13c1.775 0 3.171 1.298 3.171 2.85 0 1.551-1.396 2.85-3.171 2.85h-3.97l-.025.222-4.823 43.709c-.159 1.439-1.505 2.569-3.156 2.569h-34.21c-1.65 0-2.997-1.13-3.156-2.569l-4.823-43.709-.025-.222h-3.97c-1.775 0-3.171-1.299-3.171-2.85 0-1.552 1.396-2.85 3.171-2.85h1.13l.06-.164 2.641-7.18-.234-.087.234.087c.426-1.156 1.631-1.956 3.011-1.956h44.474c1.38 0 2.586.8 3.011 1.956l.234-.087-.234.087 2.641 7.18zm0-62l.06.164h1.13c1.775 0 3.171 1.298 3.171 2.85 0 1.551-1.396 2.85-3.171 2.85h-3.97l-.025.222-4.823 43.709c-.159 1.439-1.505 2.569-3.156 2.569h-34.21c-1.65 0-2.997-1.13-3.156-2.569l-4.823-43.709-.025-.222h-3.97c-1.775 0-3.171-1.299-3.171-2.85 0-1.552 1.396-2.85 3.171-2.85h1.13l.06-.164 2.641-7.18-.234-.087.234.087c.426-1.156 1.631-1.956 3.011-1.956h44.474c1.38 0 2.586.8 3.011 1.956l.234-.087-.234.087 2.641 7.18zm0-62l.06.164h1.13c1.775 0 3.171 1.298 3.171 2.85 0 1.551-1.396 2.85-3.171 2.85h-3.97l-.025.222-4.823 43.709c-.159 1.439-1.505 2.569-3.156 2.569h-34.21c-1.65 0-2.997-1.13-3.156-2.569l-4.823-43.709-.025-.222h-3.97c-1.775 0-3.171-1.299-3.171-2.85 0-1.552 1.396-2.85 3.171-2.85h1.13l.06-.164 2.641-7.18-.234-.087.234.087c.426-1.156 1.631-1.956 3.011-1.956h44.474c1.38 0 2.586.8 3.011 1.956l.234-.087-.234.087 2.641 7.18zm0-62l.06.164h1.13c1.775 0 3.171 1.298 3.171 2.85 0 1.551-1.396 2.85-3.171 2.85h-3.97l-.025.222-4.823 43.709c-.159 1.439-1.505 2.569-3.156 2.569h-34.21c-1.65 0-2.997-1.13-3.156-2.569l-4.823-43.709-.025-.222h-3.97c-1.775 0-3.171-1.299-3.171-2.85 0-1.552 1.396-2.85 3.171-2.85h1.13l.06-.164 2.641-7.18-.234-.087.234.087c.426-1.156 1.631-1.956 3.011-1.956h44.474c1.38 0 2.586.8 3.011 1.956l.234-.087-.234.087 2.641 7.18z" fill="#FDEDDB" stroke="#F37C00" stroke-width=".5"/><path fill-rule="evenodd" clip-rule="evenodd" d="M397.018 126.713c.465-1.265 1.773-2.119 3.245-2.119h44.474c1.472 0 2.78.854 3.245 2.119l2.642 7.181h.955c1.889 0 3.421 1.388 3.421 3.1 0 1.712-1.532 3.1-3.421 3.1h-3.746l-4.824 43.708c-.175 1.585-1.646 2.792-3.404 2.792h-34.21c-1.758 0-3.229-1.207-3.404-2.792l-4.824-43.708h-3.746c-1.889 0-3.421-1.388-3.421-3.1 0-1.712 1.532-3.1 3.421-3.1h.955l2.642-7.181zm0-62c.465-1.265 1.773-2.12 3.245-2.12h44.474c1.472 0 2.78.855 3.245 2.12l2.642 7.18h.955c1.889 0 3.421 1.389 3.421 3.1 0 1.713-1.532 3.1-3.421 3.1h-3.746l-4.824 43.709c-.175 1.585-1.646 2.792-3.404 2.792h-34.21c-1.758 0-3.229-1.207-3.404-2.792l-4.824-43.708h-3.746c-1.889 0-3.421-1.388-3.421-3.1 0-1.712 1.532-3.1 3.421-3.1h.955l2.642-7.18zm0-62c.465-1.265 1.773-2.12 3.245-2.12h44.474c1.472 0 2.78.855 3.245 2.12l2.642 7.18h.955c1.889 0 3.421 1.389 3.421 3.1 0 1.713-1.532 3.1-3.421 3.1h-3.746l-4.824 43.71c-.175 1.584-1.646 2.79-3.404 2.79h-34.21c-1.758 0-3.229-1.206-3.404-2.79l-4.824-43.71h-3.746c-1.889 0-3.421-1.387-3.421-3.1 0-1.711 1.532-3.1 3.421-3.1h.955l2.642-7.18z" fill="#F37C00"/><path d="M662.389 381.98l.06.164h1.13c1.775 0 3.171 1.298 3.171 2.85 0 1.551-1.396 2.85-3.171 2.85h-3.97l-.025.222-4.823 43.709c-.159 1.439-1.505 2.569-3.156 2.569h-34.21c-1.65 0-2.997-1.13-3.156-2.569l-4.823-43.709-.025-.222h-3.97c-1.775 0-3.171-1.299-3.171-2.85 0-1.552 1.396-2.85 3.171-2.85h1.13l.06-.164 2.641-7.18-.234-.087.234.087c.426-1.156 1.631-1.956 3.011-1.956h44.474c1.38 0 2.586.8 3.011 1.956l.234-.087-.234.087 2.641 7.18zm0-62l.06.164h1.13c1.775 0 3.171 1.298 3.171 2.85 0 1.551-1.396 2.85-3.171 2.85h-3.97l-.025.222-4.823 43.709c-.159 1.439-1.505 2.569-3.156 2.569h-34.21c-1.65 0-2.997-1.13-3.156-2.569l-4.823-43.709-.025-.222h-3.97c-1.775 0-3.171-1.299-3.171-2.85 0-1.552 1.396-2.85 3.171-2.85h1.13l.06-.164 2.641-7.18-.234-.087.234.087c.426-1.156 1.631-1.956 3.011-1.956h44.474c1.38 0 2.586.8 3.011 1.956l.234-.087-.234.087 2.641 7.18zm0-62l.06.164h1.13c1.775 0 3.171 1.298 3.171 2.85 0 1.551-1.396 2.85-3.171 2.85h-3.97l-.025.222-4.823 43.709c-.159 1.439-1.505 2.569-3.156 2.569h-34.21c-1.65 0-2.997-1.13-3.156-2.569l-4.823-43.709-.025-.222h-3.97c-1.775 0-3.171-1.299-3.171-2.85 0-1.552 1.396-2.85 3.171-2.85h1.13l.06-.164 2.641-7.18-.234-.087.234.087c.426-1.156 1.631-1.956 3.011-1.956h44.474c1.38 0 2.586.8 3.011 1.956l.234-.087-.234.087 2.641 7.18zm0-62l.06.164h1.13c1.775 0 3.171 1.298 3.171 2.85 0 1.551-1.396 2.85-3.171 2.85h-3.97l-.025.222-4.823 43.709c-.159 1.439-1.505 2.569-3.156 2.569h-34.21c-1.65 0-2.997-1.13-3.156-2.569l-4.823-43.709-.025-.222h-3.97c-1.775 0-3.171-1.299-3.171-2.85 0-1.552 1.396-2.85 3.171-2.85h1.13l.06-.164 2.641-7.18-.234-.087.234.087c.426-1.156 1.631-1.956 3.011-1.956h44.474c1.38 0 2.586.8 3.011 1.956l.234-.087-.234.087 2.641 7.18zm0-62l.06.164h1.13c1.775 0 3.171 1.298 3.171 2.85 0 1.551-1.396 2.85-3.171 2.85h-3.97l-.025.222-4.823 43.709c-.159 1.439-1.505 2.569-3.156 2.569h-34.21c-1.65 0-2.997-1.13-3.156-2.569l-4.823-43.709-.025-.222h-3.97c-1.775 0-3.171-1.299-3.171-2.85 0-1.552 1.396-2.85 3.171-2.85h1.13l.06-.164 2.641-7.18-.234-.087.234.087c.426-1.156 1.631-1.956 3.011-1.956h44.474c1.38 0 2.586.8 3.011 1.956l.234-.087-.234.087 2.641 7.18z" fill="#FDEDDB" stroke="#F37C00" stroke-width=".5"/><path fill-rule="evenodd" clip-rule="evenodd" d="M609.018 64.713c.465-1.265 1.773-2.12 3.245-2.12h44.474c1.472 0 2.78.855 3.245 2.12l2.642 7.18h.955c1.889 0 3.421 1.389 3.421 3.1 0 1.713-1.532 3.1-3.421 3.1h-3.746l-4.824 43.709c-.175 1.585-1.646 2.792-3.404 2.792h-34.21c-1.758 0-3.229-1.207-3.404-2.792l-4.824-43.708h-3.746c-1.889 0-3.421-1.388-3.421-3.1 0-1.712 1.532-3.1 3.421-3.1h.955l2.642-7.18zm0-62c.465-1.265 1.773-2.12 3.245-2.12h44.474c1.472 0 2.78.855 3.245 2.12l2.642 7.18h.955c1.889 0 3.421 1.389 3.421 3.1 0 1.713-1.532 3.1-3.421 3.1h-3.746l-4.824 43.71c-.175 1.584-1.646 2.79-3.404 2.79h-34.21c-1.758 0-3.229-1.206-3.404-2.79l-4.824-43.71h-3.746c-1.889 0-3.421-1.387-3.421-3.1 0-1.711 1.532-3.1 3.421-3.1h.955l2.642-7.18z" fill="#F37C00"/><path d="M379.389 381.98l.06.164h1.13c1.775 0 3.171 1.298 3.171 2.85 0 1.551-1.396 2.85-3.171 2.85h-3.97l-.025.222-4.823 43.709c-.159 1.439-1.505 2.569-3.156 2.569h-34.21c-1.65 0-2.997-1.13-3.156-2.569l-4.823-43.709-.025-.222h-3.97c-1.775 0-3.171-1.299-3.171-2.85 0-1.552 1.396-2.85 3.171-2.85h1.13l.06-.164 2.641-7.18-.234-.087.234.087c.426-1.156 1.631-1.956 3.011-1.956h44.474c1.38 0 2.586.8 3.011 1.956l.234-.087-.234.087 2.641 7.18zm0-62l.06.164h1.13c1.775 0 3.171 1.298 3.171 2.85 0 1.551-1.396 2.85-3.171 2.85h-3.97l-.025.222-4.823 43.709c-.159 1.439-1.505 2.569-3.156 2.569h-34.21c-1.65 0-2.997-1.13-3.156-2.569l-4.823-43.709-.025-.222h-3.97c-1.775 0-3.171-1.299-3.171-2.85 0-1.552 1.396-2.85 3.171-2.85h1.13l.06-.164 2.641-7.18-.234-.087.234.087c.426-1.156 1.631-1.956 3.011-1.956h44.474c1.38 0 2.586.8 3.011 1.956l.234-.087-.234.087 2.641 7.18zm0-62l.06.164h1.13c1.775 0 3.171 1.298 3.171 2.85 0 1.551-1.396 2.85-3.171 2.85h-3.97l-.025.222-4.823 43.709c-.159 1.439-1.505 2.569-3.156 2.569h-34.21c-1.65 0-2.997-1.13-3.156-2.569l-4.823-43.709-.025-.222h-3.97c-1.775 0-3.171-1.299-3.171-2.85 0-1.552 1.396-2.85 3.171-2.85h1.13l.06-.164 2.641-7.18-.234-.087.234.087c.426-1.156 1.631-1.956 3.011-1.956h44.474c1.38 0 2.586.8 3.011 1.956l.234-.087-.234.087 2.641 7.18zm0-62l.06.164h1.13c1.775 0 3.171 1.298 3.171 2.85 0 1.551-1.396 2.85-3.171 2.85h-3.97l-.025.222-4.823 43.709c-.159 1.439-1.505 2.569-3.156 2.569h-34.21c-1.65 0-2.997-1.13-3.156-2.569l-4.823-43.709-.025-.222h-3.97c-1.775 0-3.171-1.299-3.171-2.85 0-1.552 1.396-2.85 3.171-2.85h1.13l.06-.164 2.641-7.18-.234-.087.234.087c.426-1.156 1.631-1.956 3.011-1.956h44.474c1.38 0 2.586.8 3.011 1.956l.234-.087-.234.087 2.641 7.18z" fill="#FDEDDB" stroke="#F37C00" stroke-width=".5"/><path fill-rule="evenodd" clip-rule="evenodd" d="M326.018 126.713c.465-1.265 1.773-2.119 3.245-2.119h44.474c1.472 0 2.78.854 3.245 2.119l2.642 7.181h.955c1.889 0 3.421 1.388 3.421 3.1 0 1.712-1.532 3.1-3.421 3.1h-3.746l-4.824 43.708c-.175 1.585-1.646 2.792-3.404 2.792h-34.21c-1.758 0-3.229-1.207-3.404-2.792l-4.824-43.708h-3.746c-1.889 0-3.421-1.388-3.421-3.1 0-1.712 1.532-3.1 3.421-3.1h.955l2.642-7.181zm0-62c.465-1.265 1.773-2.12 3.245-2.12h44.474c1.472 0 2.78.855 3.245 2.12l2.642 7.18h.955c1.889 0 3.421 1.389 3.421 3.1 0 1.713-1.532 3.1-3.421 3.1h-3.746l-4.824 43.709c-.175 1.585-1.646 2.792-3.404 2.792h-34.21c-1.758 0-3.229-1.207-3.404-2.792l-4.824-43.708h-3.746c-1.889 0-3.421-1.388-3.421-3.1 0-1.712 1.532-3.1 3.421-3.1h.955l2.642-7.18zm0-62c.465-1.265 1.773-2.12 3.245-2.12h44.474c1.472 0 2.78.855 3.245 2.12l2.642 7.18h.955c1.889 0 3.421 1.389 3.421 3.1 0 1.713-1.532 3.1-3.421 3.1h-3.746l-4.824 43.71c-.175 1.584-1.646 2.79-3.404 2.79h-34.21c-1.758 0-3.229-1.206-3.404-2.79l-4.824-43.71h-3.746c-1.889 0-3.421-1.387-3.421-3.1 0-1.711 1.532-3.1 3.421-3.1h.955l2.642-7.18z" fill="#F37C00"/><path d="M591.389 381.98l.06.164h1.13c1.775 0 3.171 1.298 3.171 2.85 0 1.551-1.396 2.85-3.171 2.85h-3.97l-.025.222-4.823 43.709c-.159 1.439-1.505 2.569-3.156 2.569h-34.21c-1.65 0-2.997-1.13-3.156-2.569l-4.823-43.709-.025-.222h-3.97c-1.775 0-3.171-1.299-3.171-2.85 0-1.552 1.396-2.85 3.171-2.85h1.13l.06-.164 2.641-7.18-.231-.085.231.085c.426-1.156 1.631-1.956 3.011-1.956h44.474c1.38 0 2.586.8 3.011 1.956l.232-.086-.232.086 2.641 7.18zm0-62l.06.164h1.13c1.775 0 3.171 1.298 3.171 2.85 0 1.551-1.396 2.85-3.171 2.85h-3.97l-.025.222-4.823 43.709c-.159 1.439-1.505 2.569-3.156 2.569h-34.21c-1.65 0-2.997-1.13-3.156-2.569l-4.823-43.709-.025-.222h-3.97c-1.775 0-3.171-1.299-3.171-2.85 0-1.552 1.396-2.85 3.171-2.85h1.13l.06-.164 2.641-7.18-.231-.085.231.085c.426-1.156 1.631-1.956 3.011-1.956h44.474c1.38 0 2.586.8 3.011 1.956l.232-.086-.232.086 2.641 7.18zm0-62l.06.164h1.13c1.775 0 3.171 1.298 3.171 2.85 0 1.551-1.396 2.85-3.171 2.85h-3.97l-.025.222-4.823 43.709c-.159 1.439-1.505 2.569-3.156 2.569h-34.21c-1.65 0-2.997-1.13-3.156-2.569l-4.823-43.709-.025-.222h-3.97c-1.775 0-3.171-1.299-3.171-2.85 0-1.552 1.396-2.85 3.171-2.85h1.13l.06-.164 2.641-7.18-.231-.085.231.085c.426-1.156 1.631-1.956 3.011-1.956h44.474c1.38 0 2.586.8 3.011 1.956l.232-.086-.232.086 2.641 7.18zm0-62l.06.164h1.13c1.775 0 3.171 1.298 3.171 2.85 0 1.551-1.396 2.85-3.171 2.85h-3.97l-.025.222-4.823 43.709c-.159 1.439-1.505 2.569-3.156 2.569h-34.21c-1.65 0-2.997-1.13-3.156-2.569l-4.823-43.709-.025-.222h-3.97c-1.775 0-3.171-1.299-3.171-2.85 0-1.552 1.396-2.85 3.171-2.85h1.13l.06-.164 2.641-7.18-.231-.085.231.085c.426-1.156 1.631-1.956 3.011-1.956h44.474c1.38 0 2.586.8 3.011 1.956l.232-.086-.232.086 2.641 7.18zm0-62l.06.164h1.13c1.775 0 3.171 1.298 3.171 2.85 0 1.551-1.396 2.85-3.171 2.85h-3.97l-.025.222-4.823 43.709c-.159 1.439-1.505 2.569-3.156 2.569h-34.21c-1.65 0-2.997-1.13-3.156-2.569l-4.823-43.709-.025-.222h-3.97c-1.775 0-3.171-1.299-3.171-2.85 0-1.552 1.396-2.85 3.171-2.85h1.13l.06-.164 2.641-7.18-.231-.085.231.085c.426-1.156 1.631-1.956 3.011-1.956h44.474c1.38 0 2.586.8 3.011 1.956l.232-.086-.232.086 2.641 7.18z" fill="#FDEDDB" stroke="#F37C00" stroke-width=".5"/><path fill-rule="evenodd" clip-rule="evenodd" d="M538.018 64.713c.465-1.265 1.773-2.12 3.245-2.12h44.474c1.472 0 2.78.855 3.245 2.12l2.642 7.18h.955c1.889 0 3.421 1.389 3.421 3.1 0 1.713-1.532 3.1-3.421 3.1h-3.746l-4.824 43.709c-.175 1.585-1.646 2.792-3.404 2.792h-34.21c-1.758 0-3.229-1.207-3.404-2.792l-4.824-43.708h-3.746c-1.889 0-3.421-1.388-3.421-3.1 0-1.712 1.532-3.1 3.421-3.1h.955l2.642-7.18zm0-62c.465-1.265 1.773-2.12 3.245-2.12h44.474c1.472 0 2.78.855 3.245 2.12l2.642 7.18h.955c1.889 0 3.421 1.389 3.421 3.1 0 1.713-1.532 3.1-3.421 3.1h-3.746l-4.824 43.71c-.175 1.584-1.646 2.79-3.404 2.79h-34.21c-1.758 0-3.229-1.206-3.404-2.79l-4.824-43.71h-3.746c-1.889 0-3.421-1.387-3.421-3.1 0-1.711 1.532-3.1 3.421-3.1h.955l2.642-7.18z" fill="#F37C00"/><path d="M307.389 443.98l.06.164h1.13c1.775 0 3.171 1.298 3.171 2.85 0 1.551-1.396 2.85-3.171 2.85h-3.97l-.025.222-4.823 43.709c-.159 1.439-1.505 2.569-3.156 2.569h-34.21c-1.65 0-2.997-1.13-3.156-2.569l-4.823-43.709-.025-.222h-3.97c-1.775 0-3.171-1.299-3.171-2.85 0-1.552 1.396-2.85 3.171-2.85h1.13l.06-.164 2.641-7.18-.231-.085.231.085c.426-1.156 1.631-1.956 3.011-1.956h44.474c1.38 0 2.586.8 3.011 1.956l.232-.086-.232.086 2.641 7.18zm0-62l.06.164h1.13c1.775 0 3.171 1.298 3.171 2.85 0 1.551-1.396 2.85-3.171 2.85h-3.97l-.025.222-4.823 43.709c-.159 1.439-1.505 2.569-3.156 2.569h-34.21c-1.65 0-2.997-1.13-3.156-2.569l-4.823-43.709-.025-.222h-3.97c-1.775 0-3.171-1.299-3.171-2.85 0-1.552 1.396-2.85 3.171-2.85h1.13l.06-.164 2.641-7.18-.231-.085.231.085c.426-1.156 1.631-1.956 3.011-1.956h44.474c1.38 0 2.586.8 3.011 1.956l.232-.086-.232.086 2.641 7.18zm0-62l.06.164h1.13c1.775 0 3.171 1.298 3.171 2.85 0 1.551-1.396 2.85-3.171 2.85h-3.97l-.025.222-4.823 43.709c-.159 1.439-1.505 2.569-3.156 2.569h-34.21c-1.65 0-2.997-1.13-3.156-2.569l-4.823-43.709-.025-.222h-3.97c-1.775 0-3.171-1.299-3.171-2.85 0-1.552 1.396-2.85 3.171-2.85h1.13l.06-.164 2.641-7.18-.231-.085.231.085c.426-1.156 1.631-1.956 3.011-1.956h44.474c1.38 0 2.586.8 3.011 1.956l.232-.086-.232.086 2.641 7.18zm0-62l.06.164h1.13c1.775 0 3.171 1.298 3.171 2.85 0 1.551-1.396 2.85-3.171 2.85h-3.97l-.025.222-4.823 43.709c-.159 1.439-1.505 2.569-3.156 2.569h-34.21c-1.65 0-2.997-1.13-3.156-2.569l-4.823-43.709-.025-.222h-3.97c-1.775 0-3.171-1.299-3.171-2.85 0-1.552 1.396-2.85 3.171-2.85h1.13l.06-.164 2.641-7.18-.231-.085.231.085c.426-1.156 1.631-1.956 3.011-1.956h44.474c1.38 0 2.586.8 3.011 1.956l.232-.086-.232.086 2.641 7.18zm0-62l.06.164h1.13c1.775 0 3.171 1.298 3.171 2.85 0 1.551-1.396 2.85-3.171 2.85h-3.97l-.025.222-4.823 43.709c-.159 1.439-1.505 2.569-3.156 2.569h-34.21c-1.65 0-2.997-1.13-3.156-2.569l-4.823-43.709-.025-.222h-3.97c-1.775 0-3.171-1.299-3.171-2.85 0-1.552 1.396-2.85 3.171-2.85h1.13l.06-.164 2.641-7.18-.231-.085.231.085c.426-1.156 1.631-1.956 3.011-1.956h44.474c1.38 0 2.586.8 3.011 1.956l.232-.086-.232.086 2.641 7.18z" fill="#FDEDDB" stroke="#F37C00" stroke-width=".5"/><path fill-rule="evenodd" clip-rule="evenodd" d="M254.018 126.713c.465-1.265 1.773-2.119 3.245-2.119h44.474c1.472 0 2.78.854 3.245 2.119l2.642 7.181h.955c1.889 0 3.421 1.388 3.421 3.1 0 1.712-1.532 3.1-3.421 3.1h-3.746l-4.824 43.708c-.175 1.585-1.646 2.792-3.404 2.792h-34.21c-1.758 0-3.229-1.207-3.404-2.792l-4.824-43.708h-3.746c-1.889 0-3.421-1.388-3.421-3.1 0-1.712 1.532-3.1 3.421-3.1h.955l2.642-7.181zm0-62c.465-1.265 1.773-2.12 3.245-2.12h44.474c1.472 0 2.78.855 3.245 2.12l2.642 7.18h.955c1.889 0 3.421 1.389 3.421 3.1 0 1.713-1.532 3.1-3.421 3.1h-3.746l-4.824 43.709c-.175 1.585-1.646 2.792-3.404 2.792h-34.21c-1.758 0-3.229-1.207-3.404-2.792l-4.824-43.708h-3.746c-1.889 0-3.421-1.388-3.421-3.1 0-1.712 1.532-3.1 3.421-3.1h.955l2.642-7.18zm0-62c.465-1.265 1.773-2.12 3.245-2.12h44.474c1.472 0 2.78.855 3.245 2.12l2.642 7.18h.955c1.889 0 3.421 1.389 3.421 3.1 0 1.713-1.532 3.1-3.421 3.1h-3.746l-4.824 43.71c-.175 1.584-1.646 2.79-3.404 2.79h-34.21c-1.758 0-3.229-1.206-3.404-2.79l-4.824-43.71h-3.746c-1.889 0-3.421-1.387-3.421-3.1 0-1.711 1.532-3.1 3.421-3.1h.955l2.642-7.18z" fill="#F37C00"/><path d="M236.389 443.98l.06.164h1.13c1.775 0 3.171 1.298 3.171 2.85 0 1.551-1.396 2.85-3.171 2.85h-3.97l-.025.222-4.823 43.709c-.159 1.439-1.505 2.569-3.156 2.569h-34.21c-1.65 0-2.997-1.13-3.156-2.569l-4.823-43.709-.025-.222h-3.97c-1.775 0-3.171-1.299-3.171-2.85 0-1.552 1.396-2.85 3.171-2.85h1.13l.06-.164 2.641-7.18-.231-.085.231.085c.426-1.156 1.631-1.956 3.011-1.956h44.474c1.38 0 2.586.8 3.011 1.956l.232-.086-.232.086 2.641 7.18zm0-62l.06.164h1.13c1.775 0 3.171 1.298 3.171 2.85 0 1.551-1.396 2.85-3.171 2.85h-3.97l-.025.222-4.823 43.709c-.159 1.439-1.505 2.569-3.156 2.569h-34.21c-1.65 0-2.997-1.13-3.156-2.569l-4.823-43.709-.025-.222h-3.97c-1.775 0-3.171-1.299-3.171-2.85 0-1.552 1.396-2.85 3.171-2.85h1.13l.06-.164 2.641-7.18-.231-.085.231.085c.426-1.156 1.631-1.956 3.011-1.956h44.474c1.38 0 2.586.8 3.011 1.956l.232-.086-.232.086 2.641 7.18zm0-62l.06.164h1.13c1.775 0 3.171 1.298 3.171 2.85 0 1.551-1.396 2.85-3.171 2.85h-3.97l-.025.222-4.823 43.709c-.159 1.439-1.505 2.569-3.156 2.569h-34.21c-1.65 0-2.997-1.13-3.156-2.569l-4.823-43.709-.025-.222h-3.97c-1.775 0-3.171-1.299-3.171-2.85 0-1.552 1.396-2.85 3.171-2.85h1.13l.06-.164 2.641-7.18-.231-.085.231.085c.426-1.156 1.631-1.956 3.011-1.956h44.474c1.38 0 2.586.8 3.011 1.956l.232-.086-.232.086 2.641 7.18zm0-62l.06.164h1.13c1.775 0 3.171 1.298 3.171 2.85 0 1.551-1.396 2.85-3.171 2.85h-3.97l-.025.222-4.823 43.709c-.159 1.439-1.505 2.569-3.156 2.569h-34.21c-1.65 0-2.997-1.13-3.156-2.569l-4.823-43.709-.025-.222h-3.97c-1.775 0-3.171-1.299-3.171-2.85 0-1.552 1.396-2.85 3.171-2.85h1.13l.06-.164 2.641-7.18-.231-.085.231.085c.426-1.156 1.631-1.956 3.011-1.956h44.474c1.38 0 2.586.8 3.011 1.956l.232-.086-.232.086 2.641 7.18zm0-62l.06.164h1.13c1.775 0 3.171 1.298 3.171 2.85 0 1.551-1.396 2.85-3.171 2.85h-3.97l-.025.222-4.823 43.709c-.159 1.439-1.505 2.569-3.156 2.569h-34.21c-1.65 0-2.997-1.13-3.156-2.569l-4.823-43.709-.025-.222h-3.97c-1.775 0-3.171-1.299-3.171-2.85 0-1.552 1.396-2.85 3.171-2.85h1.13l.06-.164 2.641-7.18-.231-.085.231.085c.426-1.156 1.631-1.956 3.011-1.956h44.474c1.38 0 2.586.8 3.011 1.956l.232-.086-.232.086 2.641 7.18z" fill="#FDEDDB" stroke="#F37C00" stroke-width=".5"/><path fill-rule="evenodd" clip-rule="evenodd" d="M183.018 126.713c.465-1.265 1.773-2.119 3.245-2.119h44.474c1.472 0 2.78.854 3.245 2.119l2.642 7.181h.955c1.889 0 3.421 1.388 3.421 3.1 0 1.712-1.532 3.1-3.421 3.1h-3.746l-4.824 43.708c-.175 1.585-1.646 2.792-3.404 2.792h-34.21c-1.758 0-3.229-1.207-3.404-2.792l-4.824-43.708h-3.746c-1.889 0-3.421-1.388-3.421-3.1 0-1.712 1.532-3.1 3.421-3.1h.955l2.642-7.181zm0-62c.465-1.265 1.773-2.12 3.245-2.12h44.474c1.472 0 2.78.855 3.245 2.12l2.642 7.18h.955c1.889 0 3.421 1.389 3.421 3.1 0 1.713-1.532 3.1-3.421 3.1h-3.746l-4.824 43.709c-.175 1.585-1.646 2.792-3.404 2.792h-34.21c-1.758 0-3.229-1.207-3.404-2.792l-4.824-43.708h-3.746c-1.889 0-3.421-1.388-3.421-3.1 0-1.712 1.532-3.1 3.421-3.1h.955l2.642-7.18zm0-62c.465-1.265 1.773-2.12 3.245-2.12h44.474c1.472 0 2.78.855 3.245 2.12l2.642 7.18h.955c1.889 0 3.421 1.389 3.421 3.1 0 1.713-1.532 3.1-3.421 3.1h-3.746l-4.824 43.71c-.175 1.584-1.646 2.79-3.404 2.79h-34.21c-1.758 0-3.229-1.206-3.404-2.79l-4.824-43.71h-3.746c-1.889 0-3.421-1.387-3.421-3.1 0-1.711 1.532-3.1 3.421-3.1h.955l2.642-7.18z" fill="#F37C00"/><path d="M165.389 443.98l.06.164h1.13c1.775 0 3.171 1.298 3.171 2.85 0 1.551-1.396 2.85-3.171 2.85h-3.97l-.025.222-4.823 43.709c-.159 1.439-1.505 2.569-3.156 2.569h-34.21c-1.65 0-2.997-1.13-3.156-2.569l-4.823-43.709-.025-.222h-3.97c-1.775 0-3.171-1.299-3.171-2.85 0-1.552 1.396-2.85 3.171-2.85h1.13l.06-.164 2.641-7.18-.231-.085.231.085c.426-1.156 1.631-1.956 3.011-1.956h44.474c1.38 0 2.586.8 3.011 1.956l.232-.086-.232.086 2.641 7.18zm0-62l.06.164h1.13c1.775 0 3.171 1.298 3.171 2.85 0 1.551-1.396 2.85-3.171 2.85h-3.97l-.025.222-4.823 43.709c-.159 1.439-1.505 2.569-3.156 2.569h-34.21c-1.65 0-2.997-1.13-3.156-2.569l-4.823-43.709-.025-.222h-3.97c-1.775 0-3.171-1.299-3.171-2.85 0-1.552 1.396-2.85 3.171-2.85h1.13l.06-.164 2.641-7.18-.231-.085.231.085c.426-1.156 1.631-1.956 3.011-1.956h44.474c1.38 0 2.586.8 3.011 1.956l.232-.086-.232.086 2.641 7.18zm0-62l.06.164h1.13c1.775 0 3.171 1.298 3.171 2.85 0 1.551-1.396 2.85-3.171 2.85h-3.97l-.025.222-4.823 43.709c-.159 1.439-1.505 2.569-3.156 2.569h-34.21c-1.65 0-2.997-1.13-3.156-2.569l-4.823-43.709-.025-.222h-3.97c-1.775 0-3.171-1.299-3.171-2.85 0-1.552 1.396-2.85 3.171-2.85h1.13l.06-.164 2.641-7.18-.231-.085.231.085c.426-1.156 1.631-1.956 3.011-1.956h44.474c1.38 0 2.586.8 3.011 1.956l.232-.086-.232.086 2.641 7.18zm0-62l.06.164h1.13c1.775 0 3.171 1.298 3.171 2.85 0 1.551-1.396 2.85-3.171 2.85h-3.97l-.025.222-4.823 43.709c-.159 1.439-1.505 2.569-3.156 2.569h-34.21c-1.65 0-2.997-1.13-3.156-2.569l-4.823-43.709-.025-.222h-3.97c-1.775 0-3.171-1.299-3.171-2.85 0-1.552 1.396-2.85 3.171-2.85h1.13l.06-.164 2.641-7.18-.231-.085.231.085c.426-1.156 1.631-1.956 3.011-1.956h44.474c1.38 0 2.586.8 3.011 1.956l.232-.086-.232.086 2.641 7.18zm0-62l.06.164h1.13c1.775 0 3.171 1.298 3.171 2.85 0 1.551-1.396 2.85-3.171 2.85h-3.97l-.025.222-4.823 43.709c-.159 1.439-1.505 2.569-3.156 2.569h-34.21c-1.65 0-2.997-1.13-3.156-2.569l-4.823-43.709-.025-.222h-3.97c-1.775 0-3.171-1.299-3.171-2.85 0-1.552 1.396-2.85 3.171-2.85h1.13l.06-.164 2.641-7.18-.231-.085.231.085c.426-1.156 1.631-1.956 3.011-1.956h44.474c1.38 0 2.586.8 3.011 1.956l.232-.086-.232.086 2.641 7.18z" fill="#FDEDDB" stroke="#F37C00" stroke-width=".5"/><path fill-rule="evenodd" clip-rule="evenodd" d="M112.018 126.713c.465-1.265 1.773-2.119 3.245-2.119h44.474c1.472 0 2.78.854 3.245 2.119l2.642 7.181h.955c1.889 0 3.421 1.388 3.421 3.1 0 1.712-1.532 3.1-3.421 3.1h-3.746l-4.824 43.708c-.175 1.585-1.646 2.792-3.404 2.792h-34.21c-1.758 0-3.229-1.207-3.404-2.792l-4.824-43.708h-3.746c-1.889 0-3.421-1.388-3.421-3.1 0-1.712 1.532-3.1 3.421-3.1h.955l2.642-7.181zm0-62c.465-1.265 1.773-2.12 3.245-2.12h44.474c1.472 0 2.78.855 3.245 2.12l2.642 7.18h.955c1.889 0 3.421 1.389 3.421 3.1 0 1.713-1.532 3.1-3.421 3.1h-3.746l-4.824 43.709c-.175 1.585-1.646 2.792-3.404 2.792h-34.21c-1.758 0-3.229-1.207-3.404-2.792l-4.824-43.708h-3.746c-1.889 0-3.421-1.388-3.421-3.1 0-1.712 1.532-3.1 3.421-3.1h.955l2.642-7.18zm0-62c.465-1.265 1.773-2.12 3.245-2.12h44.474c1.472 0 2.78.855 3.245 2.12l2.642 7.18h.955c1.889 0 3.421 1.389 3.421 3.1 0 1.713-1.532 3.1-3.421 3.1h-3.746l-4.824 43.71c-.175 1.584-1.646 2.79-3.404 2.79h-34.21c-1.758 0-3.229-1.206-3.404-2.79l-4.824-43.71h-3.746c-1.889 0-3.421-1.387-3.421-3.1 0-1.711 1.532-3.1 3.421-3.1h.955l2.642-7.18z" fill="#F37C00"/><path d="M94.39 443.98l.06.164h1.129c1.775 0 3.171 1.298 3.171 2.85 0 1.551-1.396 2.85-3.171 2.85h-3.97l-.025.222-4.823 43.709c-.159 1.439-1.505 2.569-3.156 2.569h-34.21c-1.65 0-2.997-1.13-3.156-2.569l-4.823-43.709-.025-.222h-3.969c-1.776 0-3.172-1.299-3.172-2.85 0-1.552 1.396-2.85 3.171-2.85h1.13l.06-.164 2.641-7.18-.231-.085.231.085c.426-1.156 1.63-1.956 3.011-1.956h44.474c1.38 0 2.586.8 3.01 1.956l.233-.086-.232.086 2.641 7.18zm0-62l.06.164h1.129c1.775 0 3.171 1.298 3.171 2.85 0 1.551-1.396 2.85-3.171 2.85h-3.97l-.025.222-4.823 43.709c-.159 1.439-1.505 2.569-3.156 2.569h-34.21c-1.65 0-2.997-1.13-3.156-2.569l-4.823-43.709-.025-.222h-3.969c-1.776 0-3.172-1.299-3.172-2.85 0-1.552 1.396-2.85 3.171-2.85h1.13l.06-.164 2.641-7.18-.231-.085.231.085c.426-1.156 1.63-1.956 3.011-1.956h44.474c1.38 0 2.586.8 3.01 1.956l.233-.086-.232.086 2.641 7.18zm0-62l.06.164h1.129c1.775 0 3.171 1.298 3.171 2.85 0 1.551-1.396 2.85-3.171 2.85h-3.97l-.025.222-4.823 43.709c-.159 1.439-1.505 2.569-3.156 2.569h-34.21c-1.65 0-2.997-1.13-3.156-2.569l-4.823-43.709-.025-.222h-3.969c-1.776 0-3.172-1.299-3.172-2.85 0-1.552 1.396-2.85 3.171-2.85h1.13l.06-.164 2.641-7.18-.231-.085.231.085c.426-1.156 1.63-1.956 3.011-1.956h44.474c1.38 0 2.586.8 3.01 1.956l.233-.086-.232.086 2.641 7.18zm0-62l.06.164h1.129c1.775 0 3.171 1.298 3.171 2.85 0 1.551-1.396 2.85-3.171 2.85h-3.97l-.025.222-4.823 43.709c-.159 1.439-1.505 2.569-3.156 2.569h-34.21c-1.65 0-2.997-1.13-3.156-2.569l-4.823-43.709-.025-.222h-3.969c-1.776 0-3.172-1.299-3.172-2.85 0-1.552 1.396-2.85 3.171-2.85h1.13l.06-.164 2.641-7.18-.231-.085.231.085c.426-1.156 1.63-1.956 3.011-1.956h44.474c1.38 0 2.586.8 3.01 1.956l.233-.086-.232.086 2.641 7.18zm0-62l.06.164h1.129c1.775 0 3.171 1.298 3.171 2.85 0 1.551-1.396 2.85-3.171 2.85h-3.97l-.025.222-4.823 43.709c-.159 1.439-1.505 2.569-3.156 2.569h-34.21c-1.65 0-2.997-1.13-3.156-2.569l-4.823-43.709-.025-.222h-3.969c-1.776 0-3.172-1.299-3.172-2.85 0-1.552 1.396-2.85 3.171-2.85h1.13l.06-.164 2.641-7.18-.231-.085.231.085c.426-1.156 1.63-1.956 3.011-1.956h44.474c1.38 0 2.586.8 3.01 1.956l.233-.086-.232.086 2.641 7.18z" fill="#FDEDDB" stroke="#F37C00" stroke-width=".5"/><path fill-rule="evenodd" clip-rule="evenodd" d="M41.018 126.713c.465-1.265 1.773-2.119 3.245-2.119h44.474c1.472 0 2.78.854 3.245 2.119l2.642 7.181h.955c1.89 0 3.421 1.388 3.421 3.1 0 1.712-1.532 3.1-3.421 3.1h-3.746l-4.824 43.708c-.175 1.585-1.646 2.792-3.404 2.792h-34.21c-1.758 0-3.23-1.207-3.404-2.792l-4.824-43.708h-3.745c-1.89 0-3.422-1.388-3.422-3.1 0-1.712 1.532-3.1 3.421-3.1h.955l2.642-7.181zm0-62c.465-1.265 1.773-2.12 3.245-2.12h44.474c1.472 0 2.78.855 3.245 2.12l2.642 7.18h.955c1.89 0 3.421 1.389 3.421 3.1 0 1.713-1.532 3.1-3.421 3.1h-3.746l-4.824 43.709c-.175 1.585-1.646 2.792-3.404 2.792h-34.21c-1.758 0-3.23-1.207-3.404-2.792l-4.824-43.708h-3.745c-1.89 0-3.422-1.388-3.422-3.1 0-1.712 1.532-3.1 3.421-3.1h.955l2.642-7.18zm0-62c.465-1.265 1.773-2.12 3.245-2.12h44.474c1.472 0 2.78.855 3.245 2.12l2.642 7.18h.955c1.89 0 3.421 1.389 3.421 3.1 0 1.713-1.532 3.1-3.421 3.1h-3.746l-4.824 43.71c-.175 1.584-1.646 2.79-3.404 2.79h-34.21c-1.758 0-3.23-1.206-3.404-2.79l-4.824-43.71h-3.745c-1.89 0-3.422-1.387-3.422-3.1 0-1.711 1.532-3.1 3.421-3.1h.955l2.642-7.18z" fill="#F37C00"/><path d="M96.265 502.907c-3.718-4.05-8.64-6.264-13.893-6.264s-10.19 2.23-13.908 6.28l-1.941 2.115-1.972-2.148c-3.718-4.05-8.67-6.296-13.923-6.296-5.238 0-10.175 2.23-13.878 6.264-3.718 4.05-5.765 9.428-5.75 15.151 0 5.722 2.062 11.084 5.78 15.135l28.267 30.794c.392.426.919.656 1.43.656.512 0 1.039-.213 1.43-.64l28.328-30.745c3.718-4.05 5.765-9.428 5.765-15.151.015-5.723-2.017-11.101-5.735-15.151z" fill="#E51D3E"/><path d="M351.523 505.408l-.185-.201-1.971-2.148c-3.674-4.001-8.56-6.215-13.739-6.215-5.165 0-10.036 2.198-13.694 6.183-3.674 4.002-5.699 9.319-5.684 14.981v.001c0 5.662 2.04 10.963 5.714 14.965l28.268 30.795c.346.377.808.575 1.245.575.443 0 .903-.185 1.246-.559h0l28.328-30.745-29.528-27.632zm0 0l.184-.201m-.184.201l.184-.201m0 0l1.941-2.115c3.673-4.001 8.545-6.199 13.724-6.199 5.18 0 10.036 2.182 13.709 6.183 3.673 4.002 5.684 9.318 5.669 14.981v.001m-35.043-12.851l35.043 12.851m0 0c0 5.663-2.025 10.98-5.699 14.982l5.699-14.982zm-178.227-12.65l-.185-.201-1.971-2.148c-3.674-4.001-8.56-6.215-13.739-6.215-5.165 0-10.036 2.198-13.694 6.183-3.674 4.002-5.699 9.319-5.684 14.981v.001c0 5.662 2.04 10.963 5.714 14.965l28.268 30.795c.346.377.808.575 1.245.575.443 0 .903-.185 1.246-.559h0l28.328-30.745-29.528-27.632zm0 0l.184-.201m-.184.201l.184-.201m0 0l1.941-2.115c3.673-4.001 8.545-6.199 13.724-6.199 5.18 0 10.036 2.182 13.709 6.183 3.673 4.002 5.684 9.318 5.669 14.981v.001m-35.043-12.851l35.043 12.851m0 0c0 5.663-2.025 10.98-5.699 14.982l5.699-14.982zm249.773-12.65l-.185-.201-1.971-2.148c-3.674-4.001-8.56-6.215-13.739-6.215-5.165 0-10.036 2.198-13.694 6.183-3.674 4.002-5.699 9.319-5.684 14.981v.001c0 5.662 2.04 10.963 5.714 14.965l28.268 30.795c.346.377.808.575 1.245.575.443 0 .903-.185 1.246-.559h0l28.328-30.745-29.528-27.632zm0 0l.184-.201m-.184.201l.184-.201m0 0l1.941-2.115c3.673-4.001 8.545-6.199 13.724-6.199 5.18 0 10.036 2.182 13.709 6.183 3.673 4.002 5.684 9.318 5.669 14.981v.001m-35.043-12.851l35.043 12.851m0 0c0 5.663-2.025 10.98-5.699 14.982l5.699-14.982z" fill="#FDF1F3" stroke="#E51D3E" stroke-width=".5"/><path d="M167.265 502.907c-3.718-4.05-8.64-6.264-13.893-6.264s-10.19 2.23-13.908 6.28l-1.941 2.115-1.972-2.148c-3.718-4.05-8.67-6.296-13.923-6.296-5.238 0-10.175 2.23-13.878 6.264-3.718 4.05-5.765 9.428-5.75 15.151 0 5.722 2.062 11.084 5.78 15.135l28.267 30.794c.392.426.919.656 1.43.656.512 0 1.039-.213 1.43-.64l28.328-30.745c3.718-4.05 5.765-9.428 5.765-15.151.015-5.723-2.017-11.101-5.735-15.151z" fill="#E51D3E"/><path d="M422.523 505.408l-.185-.201-1.971-2.148c-3.674-4.001-8.56-6.215-13.739-6.215-5.165 0-10.036 2.198-13.694 6.183-3.674 4.002-5.699 9.319-5.684 14.981v.001c0 5.662 2.04 10.963 5.714 14.965l28.268 30.795c.346.377.808.575 1.245.575.443 0 .903-.185 1.246-.559h0l28.328-30.745-29.528-27.632zm0 0l.184-.201m-.184.201l.184-.201m0 0l1.941-2.115c3.673-4.001 8.545-6.199 13.724-6.199 5.18 0 10.036 2.182 13.709 6.183 3.673 4.002 5.684 9.318 5.669 14.981v.001m-35.043-12.851l35.043 12.851m0 0c0 5.663-2.025 10.98-5.699 14.982l5.699-14.982zm-178.227-12.65l-.185-.201-1.971-2.148c-3.674-4.001-8.56-6.215-13.739-6.215-5.165 0-10.036 2.198-13.694 6.183-3.674 4.002-5.699 9.319-5.684 14.981v.001c0 5.662 2.04 10.963 5.714 14.965l28.268 30.795c.346.377.808.575 1.245.575.443 0 .903-.185 1.246-.559h0l28.328-30.745-29.528-27.632zm0 0l.184-.201m-.184.201l.184-.201m0 0l1.941-2.115c3.673-4.001 8.545-6.199 13.724-6.199 5.18 0 10.036 2.182 13.709 6.183 3.673 4.002 5.684 9.318 5.669 14.981v.001m-35.043-12.851l35.043 12.851m0 0c0 5.663-2.025 10.98-5.699 14.982l5.699-14.982zm249.773-12.65l-.185-.201-1.971-2.148c-3.674-4.001-8.56-6.215-13.739-6.215-5.165 0-10.036 2.198-13.694 6.183-3.674 4.002-5.699 9.319-5.684 14.981v.001c0 5.662 2.04 10.963 5.714 14.965l28.268 30.795c.346.377.808.575 1.245.575.443 0 .903-.185 1.246-.559h0l28.328-30.745-29.528-27.632zm0 0l.184-.201m-.184.201l.184-.201m0 0l1.941-2.115c3.673-4.001 8.545-6.199 13.724-6.199 5.18 0 10.036 2.182 13.709 6.183 3.673 4.002 5.684 9.318 5.669 14.981v.001m-35.043-12.851l35.043 12.851m0 0c0 5.663-2.025 10.98-5.699 14.982l5.699-14.982z" fill="#FDF1F3" stroke="#E51D3E" stroke-width=".5"/><path d="M594.265 440.907c-3.718-4.05-8.64-6.264-13.893-6.264s-10.19 2.23-13.908 6.28l-1.941 2.115-1.972-2.148c-3.718-4.05-8.67-6.296-13.923-6.296-5.238 0-10.175 2.23-13.878 6.264-3.718 4.05-5.765 9.428-5.75 15.151 0 5.722 2.062 11.084 5.78 15.135l28.267 30.794c.392.426.919.656 1.43.656.512 0 1.039-.213 1.43-.64l28.328-30.745c3.718-4.05 5.765-9.428 5.765-15.151.015-5.723-2.017-11.101-5.735-15.151zm-213 0c-3.718-4.05-8.64-6.264-13.893-6.264s-10.19 2.23-13.908 6.28l-1.941 2.115-1.972-2.148c-3.718-4.05-8.67-6.296-13.923-6.296-5.238 0-10.175 2.23-13.878 6.264-3.718 4.05-5.765 9.428-5.75 15.151 0 5.722 2.062 11.084 5.78 15.135l28.267 30.794c.392.426.919.656 1.43.656.512 0 1.039-.213 1.43-.64l28.328-30.745c3.718-4.05 5.765-9.428 5.765-15.151.015-5.723-2.017-11.101-5.735-15.151z" fill="#E51D3E"/><path d="M635.523 505.408l-.185-.201-1.971-2.148c-3.674-4.001-8.56-6.215-13.739-6.215-5.165 0-10.036 2.198-13.694 6.183-3.674 4.002-5.699 9.319-5.684 14.981v.001c0 5.662 2.04 10.963 5.714 14.965l28.268 30.795c.346.377.808.575 1.245.575.443 0 .903-.185 1.246-.559h0l28.328-30.745-29.528-27.632zm0 0l.184-.201m-.184.201l.184-.201m0 0l1.941-2.115c3.673-4.001 8.545-6.199 13.724-6.199 5.18 0 10.036 2.182 13.709 6.183 3.673 4.002 5.684 9.318 5.669 14.981v.001m-35.043-12.851l35.043 12.851m0 0c0 5.663-2.025 10.98-5.699 14.982l5.699-14.982z" fill="#FDF1F3" stroke="#E51D3E" stroke-width=".5"/><path d="M665.265 440.907c-3.718-4.05-8.64-6.264-13.893-6.264s-10.19 2.23-13.908 6.28l-1.941 2.115-1.972-2.148c-3.718-4.05-8.67-6.296-13.923-6.296-5.238 0-10.175 2.23-13.878 6.264-3.718 4.05-5.765 9.428-5.75 15.151 0 5.722 2.062 11.084 5.78 15.135l28.267 30.794c.392.426.919.656 1.43.656.512 0 1.039-.213 1.43-.64l28.328-30.745c3.718-4.05 5.765-9.428 5.765-15.151.015-5.723-2.017-11.101-5.735-15.151zm-213 0c-3.718-4.05-8.64-6.264-13.893-6.264s-10.19 2.23-13.908 6.28l-1.941 2.115-1.972-2.148c-3.718-4.05-8.67-6.296-13.923-6.296-5.238 0-10.175 2.23-13.878 6.264-3.718 4.05-5.765 9.428-5.75 15.151 0 5.722 2.062 11.084 5.78 15.135l28.267 30.794c.392.426.919.656 1.43.656.512 0 1.039-.213 1.43-.64l28.328-30.745c3.718-4.05 5.765-9.428 5.765-15.151.015-5.723-2.017-11.101-5.735-15.151z" fill="#E51D3E"/><path d="M706.523 505.408l-.185-.201-1.971-2.148c-3.674-4.001-8.56-6.215-13.739-6.215-5.165 0-10.036 2.198-13.694 6.183-3.674 4.002-5.699 9.319-5.684 14.981v.001c0 5.662 2.04 10.963 5.714 14.965l28.268 30.795c.346.377.808.575 1.245.575.443 0 .903-.185 1.246-.559h0l28.328-30.745-29.528-27.632zm0 0l.184-.201m-.184.201l.184-.201m0 0l1.941-2.115c3.673-4.001 8.545-6.199 13.724-6.199 5.18 0 10.036 2.182 13.709 6.183 3.673 4.002 5.684 9.318 5.669 14.981v.001m-35.043-12.851l35.043 12.851m0 0c0 5.663-2.025 10.98-5.699 14.982l5.699-14.982z" fill="#FDF1F3" stroke="#E51D3E" stroke-width=".5"/><path d="M736.265 440.907c-3.718-4.05-8.64-6.264-13.893-6.264s-10.19 2.23-13.908 6.28l-1.941 2.115-1.972-2.148c-3.718-4.05-8.67-6.296-13.923-6.296-5.238 0-10.175 2.23-13.878 6.264-3.718 4.05-5.765 9.428-5.75 15.151 0 5.722 2.062 11.084 5.78 15.135l28.267 30.794c.392.426.919.656 1.43.656.512 0 1.039-.213 1.43-.64l28.328-30.745c3.718-4.05 5.765-9.428 5.765-15.151.015-5.723-2.017-11.101-5.735-15.151zm-213 0c-3.718-4.05-8.64-6.264-13.893-6.264s-10.19 2.23-13.908 6.28l-1.941 2.115-1.972-2.148c-3.718-4.05-8.67-6.296-13.923-6.296-5.238 0-10.175 2.23-13.878 6.264-3.718 4.05-5.765 9.428-5.75 15.151 0 5.722 2.062 11.084 5.78 15.135l28.267 30.794c.392.426.919.656 1.43.656.512 0 1.039-.213 1.43-.64l28.328-30.745c3.718-4.05 5.765-9.428 5.765-15.151.015-5.723-2.017-11.101-5.735-15.151z" fill="#E51D3E"/></svg>